<mxfile host="65bd71144e">
    <diagram id="g7YiutoSOQvFvrcGbJq8" name="PÃ¡gina-1">
        <mxGraphModel dx="529" dy="474" grid="1" gridSize="10" guides="1" tooltips="1" connect="1" arrows="1" fold="1" page="1" pageScale="1" pageWidth="827" pageHeight="1169" math="0" shadow="0">
            <root>
                <mxCell id="0"/>
                <mxCell id="1" parent="0"/>
                <mxCell id="9" value="" style="shape=image;verticalLabelPosition=bottom;labelBackgroundColor=default;verticalAlign=top;aspect=fixed;imageAspect=0;image=data:image/png,iVBORw0KGgoAAAANSUhEUgAAAggAAAEdCAYAAABpD5/WAAAAAXNSR0IArs4c6QAAIABJREFUeF7snQd8FVX6979Jbs1N771A6L0XQRAF6c2GYG+r67pN1y2uW9Td/es2y9qw7CLYkCJVilQR6R1CCyWF9OQmN7e39z1zaULmTugCc/aji8ydmTPPec45v/OU3xPi9/v9yLTSihpSk+LkLtNgdRBhMsheFxfsDhdGg072NzVmC3ExkY1eFx1zOt0Y9FrZ+10uDxpNGKGhIY3+ps5iJSLcSFhYaKPXxfN1Og0hIY3fL26yNNiJjDDK9qG4tIqM1ATZ60LELrcHva7x7/D5/Hg8XqkfjTW3x4PD4Q7aB4eCnIIOElBVU0dCXHTQn1mtDkxBxttqc2AKl9eH8spakhNjZd/h9frw+f1oNWGN/kbISDQx3nKtsrqOxHj577DZnYQb9bL3W21OTOHy18WNFVVmkhJiZJ+hpPNK14UcxTfK6YvQJU1YKKGhjeu00pwQHT9WVk1aSnyQuW0nwiSv8+JGh9OFQd/43BY6b663Ehsd0fjcVpgT4iany41OKz83zXUNREWZCJWZu02ZE0pzu6SsmvQgclLSeZ/Ph8frk76jseZyuXF5vEQEmTdKc1dJnyqqzSTFy+ureL6S3ivNG6V3KM1dt8crjaPcOt1gc6DThKGTWUOb8g1KY6U01k3Zz5R0zmK1Y9Bp0crqQ/D9TGlOiD4q7UdKOt9gPTX3Q1SAoAIEoVQqQAgsw0oLpQoQTm1XKkAQ+hIcFKsAIaAvKkAIyEEFCGfAXSV0q1oQQLUgBJRGtSCcACmqBUG1ICjZDU5dV1pjlU73TQHGqgUhIG8lWasWhNP0VnUxBIShZNJRXQwBOakuhqYtMqqLISAnJXOq6mJomj6pAOEU8A7mAlVdDAE5qS6G00COGoMQEIbqYjixiKgxCGcuEnJnWdXFoLoYTuiGEghRXQwBSakuhjNWEyWTjOpiUF0MJ1RGdTGcOumoQYqqBUEOmJ3590prrNLmLZ6nFHujuhiaZq1RXQynaafqYggIQ3UxNM2Ep7oYmrbIqC4G1cXQVHAgfqcChKZZ/5QCSlUXQyMuBkuDTTbN8UJTxsTrlBBVXb2V6ChTo/NBJGAG0gMbTxESN7ndXik1Ri7NUfhTjAa9bPqMSAkTKSdBshwVI5WVNj7xHSJVUS7VSaT2SWmOMqkv4prwxwbzn4nrcmlxTVlsausaZFPSTtyvdIqwOVyEB0lpra6tJz42SrY7woIg4jXk0hhFuphoIsVPrtWYG6Q0ImTSXv0+PyEy18Qzla6L33i9QufkUy2VnqF0XQStCn2UTb2VMpPFDxqXgpBhsLRdcZfQqWDpon6fjxCZNMoTbz39O8Q79RoNGm1ALqKLlgYbUZHhsnM72JwQN4m5L1Je5b6lvsFGpMkoe70pc8Jqd2AyyqfmKqW02hxOwg3yabFiLL0+n2zqrtvtQaT4BUu9VZq/SmtsMCvtybmtMHeVQIjSO5TmrtBHMc5yaY5i7RG6IJce2BSgpDRWSmMt7Wcud2B9kWlKOicsNSKdXS6VO5DCLJ+2H5gTwfer8kozyYnyaa1KQMlqd2I6ngqupjmqPAiSql8rMQjFxyoJDzfik0CZF6/XI236TW1iUxQTNNjm2dRnXU+/E4u7z+shLjaSsNBQCeipPAjCfajyIJwApBK4l+EwUXkQAquFEoeJUuCueIaSRVvlQThtZVaJkpq2TV0rAEGcAkLDNFLKpM1uJzEuShatnykZASPEQlVVU0+4UZ5cq2kSvf5+JYhujAaNZLFTAUJg/FWAEJCDGqQYkIMapHjGunghpimVSTEgTJVJsWmLjPiVcIuFhIZhtdpJTIgKav6V28LFJK6tsxIexPR8/W3/yl8sAQS9BqNRBQgnpKUChKbNXdWCoFoQGl1h1CwGNYvhhGJcrCwGARBE7ElKYvRZVMD19fUcO3YMl8tFXFwcqampZ8UTCB9ddW0D4RdAf6u8nV57v1ABwtljqgIEFSCcrhWqBUG1IJy1SqhESQGRKAVzXkqAIMZg1qxZfPzxx5jNZnQ6nRRs2LFjR37xi1+QkZFxctxUgHB+4EUFCCpAkNMc1cWguhga1Q3VxSAiutViTVcSIHg8Ht5++21ee+01evXqxfPPP094eDjLly/nlVdeISsri2nTppGQECi4pQIEFSCckIBS6ptSRLhqQVAtCKoFIch6ogIEFSCcUI8rZUFYtGgRTz31FNHR0bzzzju8/vrrFBUV8eKLLzJ9+nQWLFhA//79JRBhNBpVgHB++ECqxqfGIHxfeCpAUAHCVQ0Q6ixW2Rwwpch2u90pBSQFa4LKWB+kXLPIMoiObJwHAfy4XPJlkMV7RR6xyEkPxoMgcoyDlcbVauVzrcU7bDYn4UFKACttfMKC4HF70crwOUjXPV7ZHF9xTZSFDeYTF+kxcuWim7LeC177GJnSvCfuVxpvh92FwRiktHdtPXEXwIMgXBCiyeVKnzj9a7W678UgfPDBB/z1r38lJSWFyZMnc9ddd2G323nppZcoKCjgv//9rxSPICwKkZGRKkBoisI08hsBEPz+gB4LnRZxIJERcjwIwXX+xNwWaXFyPAiCZ0GUpJa7LuZMsPLATZnblVVmEoOV9ra7MAbRecGD4PP6TvJDnCk2sX6J+a20jl7IGltrthAbExl0VJXmrsPhwhCE40TpHUpzV4kHQaw9QheC8SAo9dGuMFZKYy0EqLSfKemcze5Ap9XKp3sKHoQgOi/0Jdh10ceKylqSEmNlx1tpPzv9usqDoPIgSIqkBAalzdfqwGSSJ5VRMrcqAalLFYNQV1fHj3/8YzZt2sTjjz9Op06dKCwspG3btjz99NO43W4JQAwaNEiShepiOD+EoFoQzpabakFQLQhXtQXBL6C+TCutqCE1KU52tVCplgOiUSKmUGMQAnK6UgBBvLu6ulqyFAiXQmZmpuRKENYDEX/w5JNPcuONN57UcxUgqADhhATUGISAJJRYVJXqPahBigE5qlkMZ6wtagyCGoNwQiWuJEA40YeqqirJlSCsCt26daNr165n7YYqQFABggoQvq8DKkAIyENpP1OivVYBggoQzlpdVQvC5bcgSERJ8VHnxXEvfOc1KlHSOaME1cVwtshUF0NAJqoFQbUgNLqgKCEulShJJUo6oTgXMwZBKnDldJKdkXTOG93R4gr0Br1Uk0FtTZeAChBUgCCnLSpAUAGCChBkZodqQbj8FgTxRofThd3uCFoN9Mwhc7o8EsWyXi+fjdH0LfP6+qUKEFSAoAIEN4YgWXuqi0F1MaguBplV4nLEIFRU1wVKIavtsktApBtGGHVqLYbTJK+6GFQXw+kT8aoDCKXl1bJZDHX1VqKj5DgKxAktOFoSghEnMqvTjc3pbnTBCpYaJ/IrAvwA8qZej8cncSDI8SAIF4dep5W9LoqECFNySJA9RZxEDUFOlLV1DcQG4RCQvsPrla0qKK4L2l+5UqjC9C4KNgXrg9sduP/Ed8RGGDEZ5OuWnzkYwu8ucsqDNaXxVqqFXt9gI0omL168V+SMC2uLHM+BWGyFsopywsFOKgnx0Zd9c1RfGJir9RabNNfEOIncdcFB0lgT171i7smU/xX3iOcJjhO5uSkC54wGnSwPgpgTwdYOycqkkN+vxA+iNCeEPnt9fjRhjeusWBfE/BZr1Pk2l9uDTqs5vo6dvZBZrDYiTY3zUZx4p1L+vuv/pwKL/H25pvQOMXdFk+Oj8fp8hCC/jou1RawLwdx+St+gtD6Z6xuIiYoIOgxiHdZqNCd/I8bv9ERAJZ0Te4m4X26NC+h8qKxOS9fFOh+kl0r7kZLb//T97pLzIMxfs4sIo57E2IhGP0osFFf7ee+H9g1ioz1SVkNqQjSdW2YQFqos4WuFB6Ep33G+C7F6X3AJnE76o5Z7DsjqclgQBLh3e3zSIeTqX02vtlnmJ9JkOHl4UwKMV50F4VLyINTW21i/+yjdW2dKoy4iy0UVvZAmbFgnTpQCtZpM4UFP+FebSl2O/ooFem9hBV1bZWIKwvR2oi9N2VivBqKkpnzH5ZD/9fgOFSCcPeqXAyBU19ZDSJh0kpWsOPWWwEld+VwgyGrx+f0YDHq1vPl5TFph3RJiFhZk8WcVIJwmRCWipOKKOgrLamiZmRhIc/F7SQlCvNTY+FRUmfH4/EHNW+cxrtfFLfuLKunUIl0FCKeNtrO2lsIFC8gaPhx9nDwJ2HWhIBf5I1WAcGUAQk2tBWGgF2DEXGehRW76OR+oikoqCdNqJVeF2s5VAn7iYwRACFEBwumiOxeAIGINEmIjMIXLU/U2NiziHWaLLaj//VyH83r5/b6iCjq3yFABwvEBt5aUcOzrr4lIS8NWVUnmiJHooqKaqA5+CvYfJDUjM1ATw1PP4uV76Nghi/DwCKKjm/qcJr7uKvyZChCuLEBwOl0YDVriFOouNKZawu9cVlmnGId0FarlZeiyChAaFfK5AAThJ0uOj/peUZLKykqpzK5gthPoa/DgwUycOJH4+PiT7xPAorbOKpnA1HZuElABwil5+T0e9v33v2QOGIAuOhp7ZSUFX86mw9PPoDEGD84MPMXL1wu/pmvPXsSJ4j2OEp798yz+8sLjkjlXBNNd700FCFcWIIhNXmSRnF50Tbgd9uzZw6effirVIomJiWHMmDGMHDlSKkx2ognTeHmVGVN4U+bC9a7pZ36/ChAuKkAQBDYzZszghRdeIC8vTyqSIwDCkiVLKC0t5U9/+pOkwFqtViqcowKE85uQKkAIyM1eXs6hGV+Q0a8/Lks9+R99RJt778UQH0/p+g1kjxlz0t3wwV/+jCcrC1uDhiceG8e0z+bxyNAO/PqTYgYk11JRU4PFHcrIkf15e/IKRo/rSmpSOkU7vmF3sYXkFr24fXC38xuwq/wuFSD8sACCiPf697//zdSpU+ncuTM9e/akvr6ehQsXSkDhL3/5C126dJE6rQKEC5l8KkC4qABh1apV/PKXv5T48N966y1WrFghpfn17duXP/zhD1IhnVdffZU+ffqoAOEC9FYFCAHhHVuxAtvRI+QMG86Ot9+ifONGsocNo9WEuyleuYKIvBbEd+4s/faDF//JmN//knWffEHn229l0YyFJwHCzbnQrVdvqioPUF1WyZdLC44DhCQ++XQmv/3Ns5QWl5GZmXYBo3b13qoChB8WQHj99del9bVDhw788Y9/5J133qFZs2bSP88995xU4lwUMBOHNBUgXMi8u4YBgk/kxMm0sopaUpLk60orlfctqRRBirVSkOLpLoZHH31UciskJCTw4osvSmBBWBD+/Oc/8/LLLyMK6tx222288sorKkC4AL0VAEEKUgxSx/3E46tq60mIDe5Ht9qcmMLlXT1K10XAaZIwz8s0kQ8uTKJyufEebyCXWi6nXFwTEd0JcWfzIByYNhVTQgIJHTqSP2UKrSZNwnzwIJayUvLunkjIcW6FD158jtyxD1Cwfg333H8XH01+n15tU5m+J4o+sVVENW+Pp2wnMdl5zPhiMyPHdiElKZ3vZn9MuyEjmTVvHS/++rELGLWr91YBEESeuNGgR3B71FmsxMjwqIjrIn9fr5MPinO5PGi1GtmAO7PgaYkUGU6Nh+srRZQLSSu5SY+VV5OWfMrleeboKOm8WF5F+qFc8J+QgZDbucZmnd6PWnODFKR4uotBuG/79+8vlTIXJc6jo6OltVXISlgUfvOb31BSUiJde+aZZ1SAcEHTzk+cCFI8bokJxqQo9kHB0qqV4f8Q+iDWP8FK2lgTvEJCl4Lx9ihVILU0OIiMkI8FPH1OhFhtDlmAUFldR2IQ0hlBhGKUIUKRTm5V9VTUNpwFEObMmcPzzz+Pw+Hg3XffZd68eZLi3nTTTfz+97+X5PLSSy9JbgbVxXD+mrv3aDmts5MIbwJAUCLXEL1QGm8lAg6xeccHASEiClukXMmRoQgAIZocyYi4Zmmwk5zYCAjx+yn6aiFavZ6Ejp2o2LIFp81GzpgxJ8FBwILwL1qN6kNsRDpt87I4um8HVQ1uNJFppET4qCg8gNOYSrf2WezYWUh6ZhxGQzganGzYtJtOPXsTbTx/0pvzH+0rf6fY6MR81em0EtATYxEV2ThBjx8/HonISB4giOcFyL8aXywtDTYpqE7uuhJxjpCYYpXCqlqSEuQPSUpzQuizz+uTBb2nW13OdwRFbn1YmOZ7AEHIX1gJRHlzYYl9+umnefvtt0lPT6d379786le/kuT23nvv0aNHDxUgnK/wJa4LLxHHg++VdM5md0gZeXKHICWdl65rBVGSfA6rEmOtzeYIBFrLtNPnxCUlSjo9zfF0C4IABsL09eabb0rldu+++25JWadMmUJ+fj4///nPeeihh9Dr9SpAuADFVV0M3xee1+nk6Ny52EqKiWrZisxbbyXkjODC6vJKopMTUZO9zl3xVBfD2TK7HDwIJ9IczwxStFqtklV2/vz53HDDDYwfP56Kigref/996XD2r3/9S/p7EWSruhjOXd9P3XENuxguJVGSHEA4IdgNGzZIfjERmCgQb1ZWFj/96U9p3779SdmrFoTzV1wVIDQuu/J160jq2fN7loPzl7J65wkJqADhhwUQRG+Ei2H27NmSJaGhoUE6iIn19amnnpLW2xNNBQgXMo9VgNCo9JT8d2cChKT4qLO42UVwos1mk55vMpnO4upWAcL5K64KEM5fduqd5y4BFSD88ADCiR4JS4YACCIdV6yzZzYVIJy7vqsWhIoaUoMwH54LQBDmr8hwfdDiT40NkSj+0mBzSn5NtZ2bBFSAcG7yUn99YRJQAcKVBQjC/y1qQiUnysdMyI2wOIhV1VpUHoTzmgKqBeGCLQjChWC3O6TCFnJBRWe+RERPChCi0+mCBqad15heBzddjwBBZEoYVDB5RbRbBOSJqoQicFkt1hQYgssZgyDeV29pINJklI2Sb0wxRKaFyAiJiDTJRs9fEYW6al6qAoQLBgjiASfKFjelhoj4vQAIIh1EZak7v5lyPQIEtVjT+enKxbhLtSBcWQvCibcLyuVzqTArfiuAXVMPbhdDV66tZ1zDACEYD0JpRS2pQXgQlFwMJRV1HKusJTdVPo/42lKUH9bXFByrpn1eWtN4EGoEf4ASD4IjaL62Uk64oHJNVuBBEKdQuRxhiQchCE+CkH61+I4gqbk/rBG6tnrzfR4EP3X11u/R/p7+tcLC4HJ7g/IgBHK+5dMcxalXpFHK5YxfFTwIrgB3xIXwIFTXWiTeCbVdGQmIA29cbORlquYYfE4ICZSUVZGekiArDJF+HBkhT6n9PR4El8stq1pKC7rShlBSVU9lbQM92p6Klr0yQ3h9vlWU2hYkVYKfXalVmy3EKxR5sdqdmILwXijllCvxanh9Pvy+CyNKMtc1kNgICHF6/Y0uomEhoBX/UtsFS0AABBFrZNDrAkRJDVZiIs8OiJOsg36kjTFY9UBBGqPVyJPCCCKmyAh5gOB0uaWTcbDWYHOczGFv7HdKhySlOSHM90KvgxHjuD3eoPNKaWAEUArGV6N0v3r9wiRQ3xAoJihWESWdE/omdPJ8iZKU5oT4kmPlNaQly1eqVTrYnz4nLjkPQmlVnQoQLkz/zvvuDXuO0iYnRQoOVWpNMc1brQ5MJnmCDSVmTSUCD+GCCmpBECXDBZOiDAuZuNbYdxRUe3j3uzrCj+8VZgfEHP+MaGMYEzpHkhp1fsWW8jdtJyQxntbZGVLf3nztrzz6s9+hDMmURuRqu+7mb6+9zc8f+5EUg+B01TN76XomjBjc6IcELAiCSVF+AxeLbYA1rnEAJ8BgVJS837wpFgSl05QSK52Szl+OGARhQYiPPVV46WrTnKu9v4KoShAlqeWezxhJJSQi0hyVAIK7wYLX7sCQmHi168kPrv8qQAgMyXdHnYR6HbROCJX++52NLh7vEdjCC2r86I1G2iUHNqrSI0dwhAjK5zBCvC78GiNZKTEcrXSRFRdGpUtHvM5DcUkp+ugkqg/spTrER3p8IunZ2bz28u/45e//Ru2xY1gdHjKys2moKqHW6iYpJY0InY8jhceIiE0mIVpLYUERDp+fmNhI6uvtNG+Rh6OuirKKKqKSMkmICONoYRGhWiPp6WloRZi61PyUFx+l3uknOzsHh6WSsooaYpIyMeKkxmLB4XBi1OuxNFjJzs2lvLwCv9tJRFwiieF+9haaSU+Nw1xZgU9rJFM8/zTwdbTgAA6Pl/CoGOz1dcSnZWH02fBqIvHVFhOWmIW9ppTaBhcp6Um89Le/8eCEiUQnphEfE8bHc1dx38hBHC4swRSTQGpiNEWHD+EKDSc3Ox2PChAQmQcuzykmvvNZRJoCEGylpWhMpnMob34+Pbk+71EBgsy4XyhAEKeIIzNnYj1WQvboMUTm5JyDhnkoPlpFRnaKdI/TbsHt1WCz1pOYnByEiPIcXnGV/1QFCKcAwoYjDRiO0yPuq/TQKjHwHw5PCLe0jjwJED548a+0GD2Y7au30rdXRwoOHaZXxxzeWmbhmSEmvixLopNjM1WadA5vXE+73n2oczUgPHq6iHjWLP2Miff9iF179pIQqcHh1rN12x7ad2pLUmoGhevmEt6qL4cLCrljdHe+/PgbMpOd7LFlkOk+SsTA+0g1b6fWCZt37qNfh2ZUecPwW+to3rILLZsHLBWuqj28Nzef9pl6tLl9qNo0n9isluzfup2cFrlYdJGEmItxerSkamuo1ueyI7+QYT1zKCi3MrgFvL7MyaSb0jlQ7cVSfYy+N95IVnLSSa2f/I9/0eaGdiycl8/Im7LZWpPMLZlmGmK64fj6Nbw33ENp0SFSoiPwhYWxYN5sbh83ip37q7h/4hA+nruSZFc1hpxWlBdXctvAlrz+yRpa5iTSe8hYYjSqBeFyAISaXbsoXb4cY0oK2aNHE2aQtwKeueRZ6+vx641E6AMAuqyokMiEJAgJbVJs01W+hDap+ypAuBQAwedj97vvkNCyFfGdOrH9P2/Q+rHHMKWlf+9tAkSIJpkZxZ9Pmhtr+fOvPuIPr/xUunYkfy0VDREU7N7GbQ/ch/b0+5o0zNfej1SAcAoghHkdtEkMnL6LymvJTA7kih+s8aMznLIgiFoMY59/itWfLWDkbSPZsGIhsXGRTFnr4ulbTcwpS8a1+BW21egxaEIYMfoeUpslkRFhZO3m7WzZuJThI4bx4ZtT0ETGMXDcvfRMdPDW1NkMGDuJle89TV14W8Kic/nTr8exaVUxA9q6mbo9iYFR+1hk7EfXuuV8uWwzZR4jI7sm88263YREJvLwo4/SpWUgnqd6+2fMrurGw4OaSxHrU6a8x733P8b8fz2LLXswLXt1JdpdRWW1lb7pdt76+ihWVyzPPHATsxeuom+Gi6+KmnN7j1BefWsK+8qs/Pq5Z+mQm3lyInw6eSrjHxvJy89O5bfPDuPPn+RzT3cNDdFdsS97jaq8wSybP4OQ0DB63XwrW7Zt4aXfPM20aR8z4f67mDF3KcWrF1LhDYf4XP7x3FN8O/9j5m8p549//DVGVIBwqQGC5dAhjs6bS9v77qdq505qDuyn1YMPncEieio+5/R1Vqy9W79ZjTuzFT1zkqV19s3nfsMNDzxCWJiBDs0ypHRWsSZfz1E8KkC4yADB63BQvHQpeoMBU3o6rro6TGlplKz5hrTBQzAmBU4xXq+H5YsXogs34dbGk6oPIbVTW+ylxYSGufn7b95m3EMj8cfmkKUvp6IhmpLCrdx002C27z6INsRDWrP25KRdn1kUKkA4BRB89jqyogJgs7rOSnx0IHjuaH0osbExJy0I0//zAYN/cj8b5y1n0NBBbF+/kuiUTBbMW0ZuugFz+o300h7lYK0fU0Qi8ToXByvKCfN6Sc1tzYYVsxh/531s37aNcGME2RlJrN26j/hwPabENLRVB6nSxhIbl0L7FpFsXV9KzxYevsyPp3fkIVbpu5NWtARPdBY7NmxizKiBFByrIiYiipysDKksOoQSFwmz531LQkwoUW0H4T34DQ5NJJUVFlrmJGHIbUOkp4aaWjtdUxx8vKaQvQeqGNIjB7Nby4BmoSw9mkaXmCOsPOIl1FpD7/49CNcE4lVMUYmsXbSYWyfcxLsvf8kTjw3g9TkHua1nBOt2V+Dcv4r2t/+MYwW7MZkiyMptxvQpb9O9Zx+qbVrGjejNl0vXk2d0U+43kBCbSLtEB7PWlqK1V3PD7Q+QpFMBwqUECJbDhykXa+oN/WgoLMQQH4+togJbdTWZw4ahjQzELVTu/46vD9iIDfXQtd9AavI3kdqxDxvmzseUEk5BrZf0SA1ZeW1Z9O5rDHj4R2jDjCT4q9lxuBK7S8OtQ/qhuU5RggoQLjJAKPrqK7Q6LfHtO7D5lZexlpTQ9sGHiGrWjIOzZtL6sR+hj43F43bxxfSZDBk5jM/e/YDkjBb0Gj8Ec/52KVBt6tuL+PVfH+Jf/57LgxM6SgDhyy/eYNSE+9FqomidnYLLr5dKcV6PTQUIpwBCqMdGy/iABeFYpZm04xUfD9X6MYSbTgKE+hozprho7BYbpohwnHYboVoDLms1DQ4vhqh4onQhiHK6+qh4jGF+nA4LFpuP5JQkLOZqYuLisdRWU2f3kJqSjMdWR5XZRkJSEgZdGBVlpegjYokM1+CwezDq/FicGoyhLqwhRnTeBuqsHgxhEB0fS21lGZ4QAxEGDQ0NdmFPIzo+Dr+zgTqHl+SEeNxOG5XVZhKSU/G77YRo9YT6vXh9fgxhPupqypj85U7uHdGViNhETFovFpeGKGMoZaWlhGhNREdoqKsTzwdjRAwhfhcRUSZqq+qJjTVRY3ERE6GjsrIKvTaM8JhE/M5AppJw65lra/A47EQnJGMyaKVo6oyUeOl7taZoYqMiqK0qxx1iIDEuSg1SFK6iSxSDUHfgAIVz55A3/jYqt25l36efEJGRQeef/gxrWSn1xcVn/ILqAAAgAElEQVQ0u+NOaawPrZ7CUm9fBur3si60E5mHl9N25L188qcX6DZmAK7ITPLCneSX1HJo2QJ6jB+PjSjK1symx4QnCbXUkN08h+s1GeiaBggej1c2zbGsspaUILSdShG8JZV1lNdYzspiKFn2NaE+P8ndurH11VcxHzhAhyeewJSczIEvZ9Pux09K6FYAhOmfT2fgkCHM+uhTcnJzSO3RHfuh3cTGxzH1Pwv55Z8m8eG0b5gwsuVJgDD+7gdx+/U0S4vH5dOTmXbKr3o9AQWR5tgqK6lJWQxKpZiF3JTG22p3YDLK+zcrqs0kxTdSivn4oIjTcSCLofFaih5xevYHz2KoMVvOSvnaV+Fm2f4GYgyBI47f6yQkLHBS9vpD6J9nIidWrd94oXNDpDmKzAOjIcCkKNIQY6IaB+cXJYuhvoGoIOx/J1Iug32XqDIrSkbLtdLyalKT5S2QSnOiKVkMUppjkPK7SuMiSrWfyWEirAeHv5hOizvupHbfXnZ/+CExzfPo9JOfUHfkCNbycnLGjz8JEBa7e9InJJ+DsX2J27eQlN7DmPHyawy4ezB2YyrZejclZjt7F395EiDUb55HsyH34SovoV3PrhyfXkrdveau1zfYCTfojmcxBNJ85ZrQNynNUabMuQCM4vArKmw21pQye8Q9Spk3AtAIts1gfTwxJ0JsdqcsQBAnksQgC7qobR0eZEM4VllHjcV+FkAQZXdLV67E73QS37YtztpadDExlG3YQMbQoejjAxNSAIT/fvA+nbt2xh+RTqs42HqoHK3fRV6rPHas+I6I9GSi0/PIiPRgc+k5uH8r3bp1Z/e+I9LvknPbkRLXeC72NaepZ3zQul1HaJ4eT0QQ7oITt9SaLcQq8CAo8RzY7U4pxU2uVdfUER8XLXvddzzNUS6NMWBeJyizpqXBRlIjPAhWl8hHP1vVNaEhhOuuU9voRZ4AAiAIkKjXCR4EP2IsxAbeWBPXAzwI8mmOgZxveaKk+uM8CHJpkEo56aJfSht8RWUtSUEOSUpzQgAEkb4rtyEE2Cc9GIOso0rDJPLwGyMgaygqonz1alJ69sReWYkhLo76Q4dwuZyk3zIYbUQAvAkLwqdFqdyUG0PH7l0xF+2luKqBiiIrXXs353BhGfowyGjWmop9O0lu0QIPOmI1NvYcLMERYqJ/z/bXbRyCAMI6cagJCVHkQbDZROkADRqZQ5DQB7H+yem0y+0+zg0iv2aVV9SQHKSGkpLOn379ivEg+L1ejsybiyYklKQuXdj1wQe0ffLJk/EHQnG9Hg8bNmyiW+/e6BoHVEpz57q+rroYruvhv+wfr1Itny3yplgQLmWao7W4mENfTKf1xElUbtmCy+Ega9QoQk/boMp2L2OvsTsDm8mD98uuTFfRC69pF4P/RJpAIwNSehGqOSrxIBydN4/6A/tpPnES4SmBlEW1XRwJXI8AQbA1xkRfnzEnF0drzv8pHkFk5ferxZpOE+GVBgiiK5YjRzgyayaRuc3IGjGCUN31R+N1/lqtfKcKEGRkdKE8COKxHpsNr8uFPkbeN608ROovGpOAChBUvbicElABwg/PgnCiR47qajQGg0SWpLaLKwEVIFwgQOiu1mK4uBrZxKdtVKmWmygp9WcXQwKqi+HKAQRRLEhtV0YCUqCrSrV8tvCbYkEoKq+hc4vvkx9dmWG8/t667UAJHZqnEXGd12K4/kb+ynyxChCuEECoqSf8ArIgroy2XDtvdbpcREea1FoMZw5pUwDCsSoz3Vur1RyvxHTYmF9I21y1WNOZsvd6bJTvn4bbVUtaq4fQGtU6IBdDP1WAcIUAQq2FWDXu5mKo8Hk9Q1Q/jDSpxZrOEl5TAIJSkOJ5jYh6U5MkcD3GIChVpfR5HRRu/wOGqGq04SbqjrnIbPfiSZBgrqogPC7pZNZMVWUlsQmJEumQub6eqKgYwkJDcNvqqfcbiTedStPzOBqo9+iIiwgeBFZdUYY+PJJQjQ5tqBeRKqfR6aWU4RCfR+IPEE2r00vv0omgMpEW6PXhcVpxB7I9CdPq0IaFoQ3zYbE6A38ZEoJWq8Og1xMaEig/W350H/HZbTGJXLVL2FSAcOUAglrN8RIqtsKjr+kYBIvVLsuDUFVdR0K8fOqLUt77sao66hqcarnnK6S7ggchNzW2SbXmRelcpeh/pfF2OFwYDPKbY3VNPfFxUbLSEDwIIqkmTKacs8gnlzbGkxUNz36U1WonOUjeuqVyM7Vlf0ejzcVeV0JkahR63e1EpwyUHlZcsJ/YnJaYju+ln0/9mBETJ6F3W1i8+hv633gr0YYw7LWllPliyY0/RQzlqK+kzBVOTsKpQDCvtZKFG0oYdVPnQGd9DubNW0S/Ls2YucVFx0QLNp8Gt7WelGYdaB9fz+SFe+neJpeouFg2rl5Kt6ETyNLbWH/UTI7Oxra9h4mIjSc9I4cjh45yY7fmUnGoXcca6NaqGQ6LGUNmG5pH+ti4r4j2SbCtFAbf2OOS5qoLgCD8sYIlVYyjYH2MjAxvdLzFdRHUKMcPIG5Sygm3WGwSyVGIQEKNNEE6owtSTlrcYrM5CQ/igquoMjfKq3HidUpzwu/zSzwIGm3j4Ox0UHW+y4SQc0pSoLaI2i6/BOrqrQFulpAAM2YwnQvwIGhlS9ZLOh8WJqvTSnNCfH15ZW3QNVD0IZhL6nRujyvCg2D3+Dla6+H4ev+9EY0LDyU18tKedC6/Cl2ZN15sC4KSxUiJgENJccVCGmBSbHz8pSh5gjMpKlkQ7PWHKD/0LB6XG7fdSnxOGwyGCUQl3yA9+5PX/k2vh58k/8v3+GJtIe2b5/HEzx+VAMK0Kf9h3Xe7aHPL/Yxr62KevTt93Bt569PFtE00MHD0SDY5c+jc8C1Tv1yDNTyH+2/K4qXXpvHrf7/P4I6pWPfMYV5pW8a1qOYPX9YxINdB+159icPG/I0F3NVFxztrHTxx+y147GamT32fpbv9/Ou341m8p5IJg3rz7TfLSG3ekmZpKXz44UwmTRqP33KU6RtKuW/4jXgtJfzu9YXcNzyPOlcyfXu15avpn3HD2LskmuhL1a6IBUEwKcoAhKYwKVoEiImQZ5VTYqWzWh2YTPLsoUppjsLCI5gURZDb+bbGyj2LU9/hGg9299nnPyGujKgwIg0qucz5yvz0+75vQQjOpCh+awjKpBggSpLT6aYwKRaXVpGRmiD7aUo6f/r1KwIQ1hx2cKjCRpIphGq7H5sbMqMCC9fyI15eGSn/cUoD+sZvn2X8H18h3QB1NTV8s34Ltw69Be2lWxeVutT49WPf8t9NRh4c3RW8DuYt/oZ+/foRGyW/WJ3riy42QFBaDH/oAMFpLaH84KsYY224HW5CQjXgbUli7oNodAFL2Sev/ouWo+6g4lABQ28ZyPQpUxl5770SQFi0YiU3DhzGxrnvoolJYoepH81KltBrxCS+/fBPZPa+hY2OHHr5dhOW1oPaJW8QPWgSc1bs549Pjpaenz//HxzJe4RB4Xu/BxCSdU6+WLKdSTdE88jL8+jToQWDRo5l6zcraREXwtpDZkzN2nLvLX34ds1y0pq1IFcGIIj37Pp6Kl+sr+PpZ35MlD6UpQun067fWNKiLl0O/BUBCFEmQk9WeP3+DHE43RiOlymWmztKi6UiQLA5gtIkKwGES1WLoczi5Z1va+mdEQDbBTU+ogwhJIaHYHGBUa9jZLvzS3msK97NvAMu7rmpi/Ts/UvfYlfKBMZ3iDvXJeqa+P017WK4EkRJaw45sDsdpEWGUFIvCtX4aX28FO9nOz28OCxAtSyYFGdM+4CDJRW06NCb4vxN9Bn/KMlUEBYWTbTvKPvt2YRVbmDZ1iJG334nS9/5G+7MlsRltGdcvw4SQBjQqxUfTfmU7K63MLxfB2ZNe58j9kieeGgCBzYsZ/7KrYy6+z4Kti3HWVuBNTQWn7UGd1QWD945nK8+/YBidyQT7ryDUMthpn3xFb2GTqRvu+PZGX4/69csZ93GTTi1CaSbHJT6s3loWHsOVHro3DKDzRu30r5NMh9O+YKWPW9mWJ6Tn766iuTkaB5/7AG++2Yt/fr1YdPSmeyp0fH4I3ejv0BQowKEU+uP3+ehZPcLmJJsVBVUkNLy54SG6jBEZhOmPZUiJgBCu/ETOLh1K4MH9ObzabO4+4mABWHmnC+5YcCtrJ0zjZyWOazX9qFFxTJa9LyFVR/+lc5Dx0sAoQ/5hKX1lABC1KCJzPxqG88/dTtaTShl373Pd2FDGZ5SfBwg2GnTrSeOskIO1HgY1RbeWmPj8fE343XWMW/Bcm4dOZKvP3uVLb5WvPDIuCYBBKz7+c/UHfzk8dslISyZ+Rndht1BfPils86pAOHs/e5KAYRis4cZ2+oYnBeoMbK11CuBg4zoUOocfswuLcPbBgDCse2L+GRTKaE2F+2TtWwvdTLxnntY89kXjHpyInP/t5hxd9zE/Fmfc9hiYuKwjny8dA1UVtJ35N0klC9hd8od5Jg3sGD1LkZOuI+MkDI++GIRHXvfwq03dmLeJx9S6kvm/ruGM++z/3GgqJwWHXtRvGcz/e94glxDDTNmzEab3pn7x/Zn1dxP2H7Mwx133klW0ik39951i5jz7T7GTnyAxJAapk+fgT+hPbf1y2HO2q3UHTlKVnYWe/LzGXr3E1jz13K0vgqfLp1Jt9/CO6+9Qrs+wzHV7uPbggbuvHsCOcdLv58vWlEBgozklEzOxRV1NBakuPygnb1lNmINIYgCPD6fH93x4hWbS738Y1QgqlzUYvhy9lxG3DaU//vja/z+V3fzk9dX85ORbdBoEkjw5rNqv5edlV7uG5DDjpJ6ilbOYMzv/8M3k/9J5wkPcmTbFg58M5sBjz7H+iULefCB4cz8ZDVtmkVhjc6jaN92Bt54I4vnzqGaEH756APMm7eAHn0Hcui7zyClC1ZNAvqyQ5hys/hm6hsMe/zXTJ38ES++9BzScuv3sWLZ1+S07U7pd9PQdL6HrR/9gc5jn6DG4mZg1xYsW7KcPZvWMPLJp/huyUoeHJzN+xs03NPVzT8WOeiSFULnJAtTt2gZnl3HlshBPNQ37Xx1VrpPBQgB8Xk9do5u+QORaXZcDRYaKt006/E6WsPZlqp1S5fQfMAQzDtW8cnqg4zo05UOvbqg8TrYuvlbVq34jt7jHqZteAWbnTk0dx1gysyvSdA4GHLn3ZT44smjlNCYXKy7lmHqNpRdC6cQ2eM2+ubFg7uMGbO3MWpQHnO3O2hlKmXGvGXkdRvMXaNvQmc5yG9f/lDqd/sbbqFNcgztO3fBUVvKtuJ6BnRry8ED+cQkJpMQE82aNZvp1bsrOKrZdLiOPh1aBj7aWc6KdUXcNKA7Xkcd8xavZdSYYQF9vURNBQg/LIDw1rdmOiQH3AhOl4ewsBDJv21z+4k1GRjfMQAQRC2GNYZbyalYCe1GEF2fjxsjqz+awaP/fJZ3X/iIsePbs/Owm47RRSw/Eok2OY27b2jNkuWryAgtZJu2N6F1JdzavxffLFuBp95MzsBB+OqtZHh2MrekOZ1DdlLe4nZCD69l+Jib+fuLb/Gbn9/Oj15dzR8m9ZRqOuya/Q7RHQew3xZF/wwN5Y4QBvfveXwiV/Pi/33M75+5h+lL9pJpKCG29WCiSr9iyV7wprVnVKsIvttdwOhbe/P+hzOIaLAz8CePs3PeXFre0I0ZU2fxy8fv5rPle2kf2cDh0GzG9m97QTNCBQgXGSB8e9hOiLOezChwuUVJWh/G46bAj3aF8NyQQPVFj9vN3DkLGDZ+KP94bTLPPzSS+/75FU+P6YLHF4nJsoUdFTF8u303fTs1Iz67NXvmvsfAn7zExs/fpcedj1G4czMF38wgrOUAwnXhTBrVnXmL1lFTfIDcAbez8+uZZOQ2x2iK52DpEX7x4L0sXrqKTt17c2DNx9j1WewrrcdeVEjv0SNY99HLxHUdipcIHrln1EmAsGrFCrLbdKN882foutzLhvefpMOoZykpr2FQ1+asWL6WIztXE9WmN3pDJPf2jeH15Q4mdPby/no/ndLCaB9v5h8zD9C3XSrN+o2hT/MLM9mpACGguLXHVmCpehe/30B96WGSmj9OXOYtaA0Xnt5YeGgv5gYHdbYQbujdiaZ4dfdu20py81bEygTwXdBq1cjN+zYsRZfdh9zkS0tBrQKEHxZAmLejhpF5gRgEm92FRhMqHcRqHVDqDOfWNgHLmQAIayNGkFO2jogegwgp3oUTPd998injf/tT/vvqLO4a05IZS3bTPD2ClIzm5Nd6ufvG9ixfs45cbTFbtX2o3rGCZs2aYYpOQB9iw253UFofxoDUGt5eVUuX7ChaDBhL6Y61DBs9mH/95wN+e/9QJr6ykGeHt2JHQTkF65fRd9TdLN+8jy7NkmjWrhs9O7YICNZTxct//5gnfnQnm/bVYrDsJiLvRnSFi1hfrMGb2ZURzSPYVlDEkAGdmfzuJ0Q47HS970EOr/iaNv17MmvmAn5612BembyI+LAqIjuNZNLg4wHE5znxVIBwkQHCd0cchIc4yI4JQfgJRfpW5PFI4v+sd/P7IYGTnXAxfPvtOnr378HnMxdw7/De/G36ep4c1YMPP5xKam4Oua36E+fZx9T565lw/8PkL5mFWRNKfFY3BvVoya69B+jQJofP3n+XxE5DGHVjB+Z88gEHbXH8+KHbKd7+De/NXM79j/+EgvwtjL11MBs3b6d5q7aU7PwaXWoHFk2bjCsqj1tGDibL5Oajjz6j9+j7SdeYOVZtEZlleNDQPK81tfuXo2kxhPwFr9Jh1M/ZvfhjNpWEcEO3NvTp2owpk98hq/swRnYw8uon3+ENNfCjh25n5449dGjXmu1rFrD2kIufP3EPOpngq6bqsQoQApLyeZ1UFEwjNn0oDssRvO4G4jJvbaoYL/rvhNlZVGuTq9h2sV/oFhXgglRNvFjvUwHCDwsgLMmvY3zbgIuhzmKXqgiKg1i1zc+hei2DWwUsCKU7FrPL2JuU6j0YW3clpPIQLnREeyv5aMEaonTpPProKOZ/8Qn5ZhOP3N6Xtdv3sHPNd4y4/0kS6zZwKPZGUmu3MPnzr7n38Z+TZTDz9rtT6TBoLMNu6MCyOZ+QXx/J4xNHsWnTFnr27cqMLxcxcUh3Xvp8Pff1y2XKzMV0bZ5Cbv9x2PcsYsGmUu69exzlpaVSP2OTstE2HOLzJZu594EHiKKej6Z8RFTbmxneLpINtSb6pIVLLununZszf94y6g8V40v24gnNZuL4m5izcDl3jBjMrPde5YhNQ94NIxnTq9UFTQEVIFxkgLD+qIPyOjtJplBESdeABSEQPLW0wMvzQy7s5HxBo30ON7tdLnxev5Teoj2ed34Ot1/yn6oA4ZKLWH3BaRJQAcIPByCUW7x8srmOPpkBp5JVcG1owtBrNdQ7/RCmY0irxlNQf1BK7fPhdLqlLoVpNLLponJ9XjXnKzqPGcalrFN5TQMEl8sjy4NQXlVLcoJ8fq2o/W4KUse8pNJMhdlKzzNqMZjtPvZXuQX3SyAvO0TigZFapD6UtsnyNeJ/UMr7A+/M+t1HaJmZRIRRr9jTGnM9cTHyHAWBRSb4eNvsDonsR65VVptJjJcvyuX1eRF543K10r1eL0JNhB9VrtXWWVBJYxSH+5L8QKTrCZAgSJoEz0F9g5XoyMbdGuK62+NBF8Sy4RKWD41G1tIiCKWiIsJlrwsKXL1C5cIGm+DRl88cKquoISVJ/sCipPPCWiQOQOI7GmviG0X6brB5ozRY5voGEs/gqxEp5NuOOfEEqENO8l+I+SPW3KxYDSlqOrmSaJt0vd5ik/hfQghBSeesNmHJ0QbVB5HmHRLSuLNSaU6IDh8rryYtORDo31hT0nnRR9PxOXFF0hybJHX1RxcsgevRgiBArdFw/jnlFyz06/gBAsCJHG+jMQAQzPVWWQpgcV1YD/VBiIyUcr4FuVeUmuZIYzwI17EaXvZPv6YtCFcizfGyj+B1+sLrESAoESVdp6pwWT5bdTGcLeYrleZ4WQZcfYkkARUgyJkqrA4igrCIiTTHIyWVtM6+8GhxVRfPXQJ7Cyvp3CqzSS6GpmysVztR0rlLUL3jXCQQoFq2EhsTrVoQjgvusgCEmnr8kvNNbVdGAiGSW1MEHSuRc10NTIpS+WpTwO2muhiujEZdlreqFoSzxSxM2xUVFVRXVxMTE0NKSgqhoU1JTrwsQ3ZVv0QAhMmT3yMjI43evXuj1RmJi208rkV1MQSG+lIxKV7VinSVdV61IFyABUGt5njltF0FCGfLPj8/n5KSEukfo9Eo5W137txZNjDyoo+ez4nNGUK4UVRo9GG12zAaRD0BsNQ3EBl1nNXR78FidX+/ToDfS53FSXTUDzP6XAAEq83G7l07OXr0qBR9Pm7cGAmIndlUgKAChIs+t67QA1WAcBkAgt/nDkRuhlxKrrcrpEFX6LVKAGHRokUMGDBA2iivFxfDggULJFNgenq6ZAYXJuDo6GiaN29+WUbJXb6d5QUGbu3bCp/LyrJvVtCj9xBiTPDF1Pncce/4QD9sxUz9aj/33jboVL/sZbw7cws/umf4aX31cfDAIZq1yGsSSdOl/MjTYxBEZP6mzVt59503efjhh+nTp49U8a6oqIj4+HhJ59QgxaZZEKZPn86dd94pO3RND1L04/O6CA1Tzmq6lHpyrT1bBQiXECC4nTVUF36GpWoBWn06sen3EZ3c77LqkMvlQqeQDnWxOiRtSqKk8WUwaysBhGnTpjF27FgiIiKuC4Agxvmrr75C/H9iYiLHjh2jVatWEkDIy8uThrjyyB6JBtxgMNKtXS4bN2zC4/OT1aYbNUX7cPugpqqC2PgESkstdO3SnEOFpRhCvcRn5FG5ez2+xBxiNF7sfo2U+tS+fTt0YccLazQUsbnQj85ehs3tIf/wIcaMvpNYE0x983+079cbp8NF+7ZZbNtxjNxUPYcrLIT5POTmZrE7/xi5WSYqaxrwOuyk5OTw4u/+xAuvvU5mfPA01Yulw3LPEQChptaMJiwkkOZosREdZWL+/PnU1tayZ88eli9fTlZWFh988AEGQ7hE3nN6Cw8Pl8CDaGoWQ0Ayb7zxBk899dQFAQRb7R4qj07GZT+AwdSRxGY/whCRc6lV4uTz/T4fIuPycqx74qU+tws0Oi6Qa65J8lEBwiUECLUlC3E551FXdoyI+Hhs5gZyurwnVdfzeb3s2bWdFu27og+DI1tW0ZDeh/bJOtwVe/liM0wc1lrq3aEdawnP6U7KadXqyvetwxrTnmZBKGYbSg+w6ICX4V3TCNWFU1tagMWlIS0jkwiDhrKyY0j1vrV6MlLjKatxkJOeiM/VQGWdB7ulCqdblCEOJTUzHau5gbBQN7V1DVK/DBGx6HwukjIzCPM5KTxSTEl1Pb27d5EYGC9lUwHC96W7detWaaMym8106tQJq9Uq/Xfbtm0lwABe3nrjX4yc8Ag+m5UI81q+KsnhlhZepi4uJC/dQOcefdixfCppvSew9D/P0GXcT/Fq9XRKNbLtQBkFX3/FkKefxWQpp9rqYNeu7QwfO4nEyOOnttK1vLmkHE0o3DG8L8tXr+TmIeMkgDDtnY8ZMuEOtq1dSV52HDPm7yavRRyde/WnZNe3mJLTmTV7M4MG5hKTmI2udj9V4W2YOfl1Xnn7DYyXYzUMorACIKz9bh2WerMEEERdeVO4Qfrzpk2b+PTTTxGpkKL97Gc/IzMr+6zS3mJsJk6cKMWFqADh4gGE/WsmEZGkp6GihpjMVLzOFqS2/KX0goaibWy3pnND60Aw+b5tK4jI6kV6nJEdW7aRmd2MWMGz4DYzY/Eubh952gHOY2HBit2MGNw76FJWeOggjlAD0RqIiovh2LFSQrQGyZKn18CRggM4PaAxRpEQpUcbHkW4LgxzbT2GMCdHS2ul54dptCTExRJqNFFbchiHR/xtCOEREUTGxBFjMlBfW4PGW8W6fW5uuqHdSQ6IS7XWXtMAYe+BQtnwV7vDidEgb44SRCdyBCBiMMrNVgzhRnq2zZZHv0Wf43Iuxt2Qh8ZoxtFwkNS8v2OMbi6xJzkcdvQGI5Y6M3tWzcXd+U76ZxtxFq7nb/Md/OzuTkRGReFz2wnRGnHb6nF6/GiNJgwhbrxosDtciGp+4aYIGvYv4bPdYTxxx62EhnhZsGgxNw26hR3fLMaU04sZf/kpw5/6BTM+X8wzzz7F9JkzGNx/ABqdgQxjNYMm/onJ06bS3L6BKVtiGdo9hv/96x8M/tHTtMsz8eLzn/ObZ+6ktuBbPt8ayr3j+lOw5H2MfR8m8vBsdhmGkGzdSc6AETSLvLSEUKu3HiBCG3KyzsWZg7Bg3hwG3TwYY3i45C/Wn1EaV+CX0wk7lMZbEOUIkg+55nAGr5UuLCvgJ1SGJETpugTIDDqyM5K/1wXhRti7dy8FBQV4PB46dOjAxo0bERTEosS2iEMINC9vvPpvJjz0OPZ6MxHV3/JVWWtGtPPxzqz9dGgRR68+N7Bv7efEdZ/A0n/fT9agX2KKi6JdgoGte4+yb+lqHnzl18x86z1uHjuBPdtW0KP/aJKij3MzCICwuBytwcCEW7uzcu039B84UgIIH7/3BaMmjmPrum/ISo3gi/n5tGyZSM8+/SjOX48mJiEAEAa3oUWzVvir91HgTGPuh6/zwmuvEnm84NmlWgiVnisAwpGiMqn4mvifw+HCZm1g3XffUl1ZJhVmW7H8a5o1a86fXnpZ+t2ZJ8oZ0z9l/O13EhoaJhEMhYYKG0zjSFoijdEGrDSNNfG+YKRa4h6XIGuSITES1wXICQ9CNKY0J4QcGvvOE/09QaQUFiYfKPvpxx9x96T7ZMUvGBJb5GbID4/fR/6qIUSntkWj7YPDNpcQsshs/7J0j1g77T4t+n3g2RYAACAASURBVBAPgnxq96aFpHYaS4sUE6uWfE1GdnPiU5KIigzHYrETGWGgvr6eUK0OvVaLy+XBaNBis1pxeSEyUs/LL73ME7/+DYnHo+GXfTmNjkPu5s0nH2bs45PYVBxK22gn+6u93Hfnzfzz/15j5Ljb0BtM7F4zg9VVifz1p7cxY8ocxowdyO6t37GyJITxfTpgPriJkpT+dAyvYeqX87hr9Hj0IfVM/eoAzzw2lM9mfsWku+9k3Vdf0HLgbSRf4nW2osqMIGgTiSRKOif0RYy13BqnpPNK1wM6G5ywTrj2ThRHbExpTp8TVzSLwe9zcWzvKxhiq3Ba6qS+Oi3x5HR9RdqYvG4Xy+bNIq9FFos3HSKsqoBWdzzLgJwAQHj6/d30a+EjqsUAYqpXo8/tzcqvVpKeoKEupRuDDFspCWvNgpUF9MjwENO8C9rDC/m6PI3f/eQ+dD4LC1ZvZdgtN7F11XwJIMz+v9/xi/c/wL1jDp/kx+I8toHM9GwS07Lok2fksX/OZnjPjgxpo2f2wSweHtue//z+t9z2/N9I1Vfz9DPT+Oc/fgZl63j72zCeuK0HjoZyvvjkc4554/nFE5No2LeSD3Yn8avxF1ZFTGnB/uqbLRTt337KvH3GDeJUJzZLvV5PY+xa4uQnXBCxsQE2zas1zVEAg3379klupIyMDIQlQVgQhOXgzFZ9ZCfbix1EhBvo3rkV69d8KzHdNevaD2tlCRmZWVQV7sKY3p6CtbNxGdI5UF5Ht6wITCmtqc7fTadbbyR/7Tq8ej3mOhvRmgaOllsBE8MGt2VfaRhhdUdwasKxOd306dkDgxY2r1yFPTKOEKeDTh2bs217CSmRbgotXop2bqDzgGFUlZrJbZ5AfFwC2Kqp8UZTumsVaZ1uJCf5ylKUnx6DUF5eztx5C6QS1+3ataN79+5S7IfIIBEuHTEWjcUgTJ48mUceeeS6sSBYrTaWLP2aOnON7HRevXo1N954o+z1zKxm3DxI5rrfh7l0NbXl7xGdmoitpprQMAM6w1ASsm+Tnlm9fTqzKtrTKuQoR8vMhGKm5y33SADh6/nzsVksWLx+unZry5Rpa3norp6s3biLpEQjYaYMNm/I5/bRnVi/ehs2ZzU53YYy56M3Gf/4r7ilm7DwNvDh+3N54JGJvPDgAxJAKPQ3Y3TPdP439UvumTSCP//mOTr06k/rTgMo3LsGR20hpPfCVVTExAfvpPboNuYeDuX+gR3Zs3wWB+P6M7pzHG9PmcYT998vfcfmBVNZX6GjZV4eN/fvxpbvVhKR0IJWLdKVlsoLun5NWxCuFFGSz+emYO3PiM6AutIadMZWGKNaEJcxGo0u4Es9ARB8NUeIG/ErjLtmYm45mv7ZBgkgvLLYz6/HxvF/Mw5xS1YJdm0s20K68HCrBuYVeOkdulECCN/u8vHj4WmsP2hmUJ6dj7b6eGTMQBz1FSzasJPhAwexZeW87wEE754FTNseRaj9ILeNGC5ZMaLcR3nq/Y1M6hxDla2eytDuTQIIIlp9/oIvadGhN62y03Ac28qLM6385alLG2uxdkcBKdF6TGL3aaTNmjWLoUOHIvy+NWYLcTHHI+iP/3bx4sXfO2FfrQBBbFYff/yxFCgnshecTqcEfEymQLGaC2mH9uzGEh5Hp5xU2cdY62uwSrbQMOIT4wg7B9+S+dhBXnvjLVr0HcttQ/uh1/5wUzJP8CDMnPEFO3fu4tHHfkSrlnmNFoqSy2K43gCC2VzHjBkzGDlyhCxl9IcffshDDz0kq19Ot4+sjMb1r75iA/VV/0UfqaGu2ElIiJ6EZncRGd/jZLCiAAhfFOeQGlbFkEG3snPN58S2HSUBhJVLl9O6XWes1iKOHihiybeFjB3amuj0DiR79vJtUSg7N+Rz57ge1NVpaWkq4OuKVuz7bhY/f+53BOxmFfz3rdU8+OPb+dPpAKFXBh9P/ZK7Jg7nrf98yJ0T7yYiIoaVXy+gc+8+bF82nQ0Hdfz5+cebBBD8Xidvv/J3xj31G1IjNGzd8C2myDRatsm9kCmueK8KEGRE1NAEoqTG0hy9Hitl+9/BEFOIrbYaY8S4k2j29Fd5PS5WfTWP3MxYlhR4SK7fR+LNj3BDlhFn8SZ+PWUv47qFUxvdjlTLBsKzuzFn/mb6tTGyPySLm6PyKQ1ryfp8P48MTmbj4ToGtNbyvyWHuO/OkWi8DSxcvo7Bt9zMzrVLCc/qxpy//4qBj/2cgvVrGHjHfSyYM4PeXbujMxjJjbLx/PQ9/OPJkbzws8fJHf48945sw+SX/szoX/2RFH0Nz/3+c/7y0hNQvpEP14fx0Oiuktl8+ZpVtGvVnuTEBIq2fMUyZ0ce6HNpke2FxiDMnj1bSgHMzQ1MsKsVIIi+i7S7wsJCWrduzZYtW7j55psvX2qj4hJzbfxAAIQPPvwvrVu1kLJjzodq+XoECHPnzuOeewJxF4218wtS9GOrzaey8DUiEvVUHykmvc1LmGLPtprV7JrNvMo2pDsPY4yKp6o0n/b9bqN5cjjLFywk1BiBy1YlBcTOmr2FCWM6c7SkFpOvglpDM/ZvP8C4UV2x1GtpHn6ElZUtqNwxh26jJtExO0U4cvjfR58z6d57+edPfsyIB+9gwxE37VP1lNvDGHlzV177xxvcNGQYelMsR/dvp2OvvoQ2lPG3tz/jtf97AXPhThYWhjKxXzv2rp7L4di+DOsQy4effs5Dd088KbZP3nmHYQ8/TqwWNq1ZTExmF/Kyky7pBFMBwkUGCLXHvsJh/RK/34W91o8p9iZSWgbMRKc3v99HdUU5sUmpFB/YidUVSkrzNsQZQ/E56thfaMblbKBV61bYzeWEGYx89v7/qHd5aDVwJINaRuHAhLkBMhP11NncxMdEUHDwEBk5zTDoQti6fDmalj3INDoJM8ZwbP96qh0GWrVtT3yElgP791JWWYvWYKJ9yyyKapy0yU2nofIIdf4E0pMiKDxwgOTmLdCHutm3T0TGZ4PTTJE5hMzkQB2xqppqIiMi0YX5WbFwGZ0HDyXOcGlPgypAuKTrgvrwMyQgAIKIW4qKNJ03k6IKEM5Wq/MBCM6GYo7t/T2mBAO22irwtSYuYxRRyb3OeoHbUka5O4okvYstO/aSlpNDQlwC4XoNtdWVVJcW4dDF0bZ5KgcPlRMRZmHh1yuw1NTSf/zDxGl8pCRH4fGEEh5mp8ZlQu+ppNiioV3zwCFo44qlJLTuga+6mKTMVPLz9xFqiKJt29aEi3V43Voa3KCLSiY3NYao2FgMYSEcLi4jNysDt91CpR3S4iJpqCnHpo0lKVJL0bFSMtPSTn5TydFCkrKy0HjtLFi0lIFDRhChu7Sp8ypAuMgAwVy6kqIdfyO19VOU7f0fzfu8gjHqRKDY5V53fWzevJVu3bpdlhc3NDRI/v6UpEtPP60EEITZfcyYMbJpjlerBSE+9lIWd70sanJVvkQEgIp4jQsp1qQChLOH/s033+TJJ5+U1YnGeBA8LjN7lt2OKaYdbpdNyrJqPeDdK6ZXzroaKl2QkXh54mQqd62HvF4kXoa6bSpAuMgA4fTHed0WQkK1UuCM2i6uBJQAQmVlJXFxcRKBTWNESVcjQBARxQa97uIKUn1akyQgIvJFdUYVIJwSl1ItBhGDoORiKC0tJTVVPsalKURJDstRDJHy2WRNGmD1R41KQAUIlxAgqDp36SSgBBBOf/O1AhCawgh56SR+fT/5YlRzVC0I565DTQEI5/5U9Y6mSuCaBgg1tRZZHoRqcz3xMfLsbEo8Cceq67E6XHRoLo9+mzoI6u/OXQJb95eQlRSDyaB8oq6zNBAdGfG9lyxYMI/27TuQnf3/2DsLMKuq9f9/pru7Ycihu5FuJKUUQSzUqz/jGlev2HoVC8QWRAwURRiQBhlg6M6hGRim+0yePv//2ocYYPbZw5Ayez0Pj8g+e+W71vruN76vlXGtXKfDzUWeF0Or0+Fq47mIFfbzuTRS4hJtktks2a7lYtdNZivJjoN95TZFwZAouBZiooRjlO0i2hFhd2q5fjMgAIIgCBPcKGJ+hSnNy6PyvBHiucFkuoKDYM6Psxk/foK0xiJmXMiC3DqJg1kQMdnLrKPgSXB2ss01UqbV4u4qr71UApxKe8JsMWMymWX5YjRFRaxcuZx77hklGxuvtEJiDJdHICm9oz6/fjNQWqaVHEwFH4eSzJVpdRIHgdwZZ+VJcJCXacE9ZGNPiFHl5BcS5H9l/pPzI1aSedFH93P8R7eUB+H6LZFaU2UzUFM0CEKNK7gONm7cSMvW7WjRrLFNgRC/PX36tESvHBOjql2v1+5RNQhXzuT1MDEorY+qQVCaoRv7/I7WINwqHoQbu2Rq7WIGagJAKC4uRjhxiQRA9913H6VleoIC5dHzvn37pBwMgglOcCJ07dr1AomPKjXXNgMqQFABwrVJ0D/zbRUgyKxbdXkQzldXYtCRXlwoGCpxdXQiystPVrXyzxSdW9vrOwkgCA7/ffv34+7mToMG9aWsgIId8dChQwwZMuQCXbKSSnjx4sUSMZRICCT+iHwMQosgEghVp+zbtB270GCa1bGaYd5983mef/0jKjXEGItYknCYwX2soWaFJzawPi2Yod0acuzUYfLyy+jYRkTTmEncuI0uXTpWIBE2s2PHHtq0bX0JsXB26llcgiPwcb6xIbNVmRsVINx+AMFkMZNWXEi50SDJTZinD17OqkN4VeS5qr9RAcINAgjf7t1AsxiRZteOtIJcOgRFE+El//VX1QW7E38nspMZHZxwlknIY9DrcXB2viTl750EEGbOnCllABSXeufOnSWa5GbNmkn/rWijtgUQBMhYtGiRlI9BaByEqUGEt/r6+l5I97x63h9kWwqwOIVCzjGMfnGM6dOYeZsLGN7Sla0FPrQPMvDbvAXUvWs4QaUZ7Dm+i8xcuP/BSfww43WefeVtEpcu4GCKjkmPTMDf7VzGQkMBP83bzMjBbZg391fsPdzwrdXNChBOHGD14gVkaT2lkLZNm9YypHcPli34lVwXP2p7haJzKKd3l64s+e1HDqdm0/vucaz7aRpnA9vwyQvjuTQv4s3fBSpAuP0AwmlNLkeK8/D18EL4Q5zIOMuExh1vvnDcwS2qAOEGAYRX1y9kfHtrvvtDGSk08w2hnt+NZb0ynE1kfpIv4/o1rZbImo16jBYHnJ2uH/nGqt9/pv3w8fjI+FOJRFMrV6ymbY+eeFh0FBQZCAsNQF9ayIkz6djZO+DrUMScbaW8eF/3CylO/2kAISXlLM8++yypqWelS7sis5wwB4ivfVFE7ojQ0FDpv5eXhx95jJEjhl7x78Ipbu/evRLN8okTJ+jRo4fkSJeZmSlllDsfRjbr7Q8Y9MqzrPj+d8ZOHMOu9SsJ8Pdm9mYtz/f1ID4zmOjUpQS0G826Ge/SZNi9+IWHUtvPhR17DrF722qGDr+X1Nxi2tT3YsP2fO4Z0dvaH10Gr7yzgBGDGuPuE0Mop0jMjrAChOOHyMoroUvLUH76YxdZRZncP7Qb23dnMaRrMF8tPI69YzGTRo1m0YLFDBndlS+mrqBpHRdC+oykmb+882i1BL0aL6kA4fYDCEm56aTqS4n2D0ZoE5bs28ZLHfpf1lEzv0x7G5dG/RjZt0Olqa+Ob1lGvmcr2je17QAsMvAu/DOegSNH4lbhiNRqy3B2cb8p6ZerIbrX9IoKEG4QQHj+798J8wuUas8p1jCpSUcaBFwUQLPZxJ6tm0jNyqVhu57UCXBgw9oEHHwj6dAsipWbjuFgKqJhnQgOHT1Dqw5dpRSliQlr8YpqRMuGVgc0Q1kef6/dRGTDltR3Ps0n8Sk0qBvCwL49yT1zhC17j9C6cy9MuafJLMwnNKwOZ47vx8Enks7tm5F7Yh+7TubQvmMbEr77mIyQzky+pzObNyQSWKcZTer4sXZJArFtu1I72INjJ89Sp05t0pOTcPcLYffmTfhENqB18xjW/ZVAUJQf+aZQ2tfx4Ewx6DNO4REUgqYgi4zsYjp364Yl/xSbD53BxyOIpnGR7Ew6Qo+u3diXMJ9l+yy8+uwoTm3bwM5Ce1rERhAVHcmWudPw6/s4LSOs0Qj/NIBQUFDIsmXLWLcugddff11KrHS+LFmyhKkffoi3tzfDhw2TyJ3E87Zt20qJf86XyjQIAgiIBE0iUZAo4eHh0t8FCBH11a9f/8L7s97+hGFTnmLDb0sZPHIw2xOW4Rfoy8w12TzT14/lhVF47f6BFLsIXM0Gmrdoh2OgH3X8XNh16AR7tq1iyNDh/LV4NaHhYdRv1Y1uUsKaiwBh5MBGOHjHEGw4yg5N7XMA4SBnMwrp1CKc3//aRZYmh0lDu7HjQA49WnoxZ1kKdhJAGMPyxSsYOLozX7z3F43ruhDQbRitQiqPFrimk+8qX1YBwu0HEA7mpLH41AFcnJwxmIwUlZbwXvcRl3T0xP41TJ22nFfffYmy9MMkF9jRuVMHHPW5rNu4m4atO2E4uYENxwwER0UzuFdbTh/axb7kLDp26UGYvwci38zxAzvZe1pDuaaA4SP6sXX9OnwiGlLP38hbH8zgoeffIcwxjy37U+jUpQv+3m5XKWG3589VgHCDAMJr6+N5oEMvqfbNyUfpEBJN3QoaBKNBz7y5c2nfvSN/LNrI8M4tsAQFkXNsPyE+zny2qoAnenixLt2dLjFuZJZZcDu1FkPLcZzZtJJhTzyGv52FmR9NpcvYezm04wB3t/biu41aWrkeJT1mCFGWLEJCwkhctQ43Bw0BHUfiWZaOn5cXmcd34RYQw5+b0nmwbzRHil2JLNjFEftmmA4vocHdk9i/aSP3jevKT18nMOaRMXi6OLBoyRJ69OnL8t/nEx4RSXCDOhzbvYf2nZvw7dRFPPnyOKa8+SWT7huMyc2XPYv/JKx5M1zCGuKuTcXVzZV53y/l6efv5Zf5m5k4titHD+fTrVcHjEXp/LT0KJPG9SBp+3r2ZekxZyTRqPtoGjke4vejwdw/oNk/EiCIcDCR0nnap58wduxYoqKiLkieuOTT0tJxdHIkNCREcjI8deoUP//8M5MnT6ZevXrSbysDCElJSQhnxtzcXClyQbwnwIXIZHl5+fOrH+j1+Hh2Ll1H977d2b9jAz6RjTiw+gcOZpQS03MS/SMNfD/nZ+p0v48mHjqSjiay7XAZT/7fYyyb9w33PfQECQt+Yv0RDU89/hDmcg0mM/h52/Hjr1t45P6ezP7mG3ziWtEgognt28ZyOuU46xb9zq5MR17+9+OsWLGU+0cO4c+fZpLn4IoTIfj62zG8/wAS127krgEtmftNAn27RfDmvL189vpkbmzycOXDWQUItx9AEBqETEM5tfyDKTPoWHpw5xUahBLNST56bxETRjdjTaY3LX0MGL382L1kPn0fmEjimh10quPESX00pt2/Ez74MUqKCgj1cuXU6VT6D+hNUcZpEvcep0WzJmxK2EBUuB/esQ1I2rqL/n268MP3n3PPpMl8Mf0PJo9tz4ojMHnknWHquKMBgsFolOVByMouICTYmuq3sqKUvCctW0NWQQntGlXuAPbahnhGNekgVb0j7RR3Rda9DCAYWLxoKQNG9Oej6d8yoX9n5v4Rz9m8Ih4d05eftzvyn0HexKf7M6gWbDuWSmbCHLYX+OHh4MUrH79DmIuR19/+Hy/952WKCwrw1x2RTAztXXex0aUnIekJrN64D0fnWrRp6EnTUZNwOr2TefPjycjWMHxQD9bnhfHKqGZotBZ0JxLYW16Xg3+8ymmicfYM539v3seq+QcZPq6fNJaMvetISNXgYhdGk9Ayflu0goxiM6+9/DALftjKky9OYNdv/yOhuDajBvdn5Q9fEta8DeEt2uFemkZxfhrz/9zHu29M5PPvljJuVGeOHM6ne68OmIoz+XHJYQkgFBbkSTkiMtKOkpFjoEN4EXMPBjJxkBUgbDt0hgbRQXi6K6uf8/KLJFV6xbIoPp5mzZpTO/Z8siYdHh7ydZWV6XC30ZZgOQy2EWEgAIIAAtOnTWP06NFERV8ECKJfgsZXFEfHi7rLsrIyfvrpJyLCw4lr1AhvnwDCQgIuGYdI1CQ0EyLxlOBKECaGfv36XaKhUL7+qvcLs8mIXmeUcsU7ODvi5FR1T4GS4gI2b96MNvMUoV3vo13szaGprd5IQQAEnd6Aq6uztI6aolJ8fS7l1jhft8SDYDDh7HzpfMz87jspc6G9gwN6vREnJ3keBFG/t5e7LE+CTmfAxcU2bCop0eLpKe+0l5GVd4U8VZyf0lLbe0KEOUo8CDLrLpgUhXbs3nvHySZrUlqPQk0Jgf6V04sLgHC6uIAonwAJIKw9lcTLHQdcVmUeH721gAFdA3jnxzWEervQd8x4NixfzOuvvUpOdi7alD2SicG44XPsez1BypaFJO44SlzL7jz2yAiyk0+y72wuvTu2ZMH8RTSsHcSiFSs4mQMzpr7Ogp8/o//gIYyd+BItmsRSq9Ugnp7QR2lo/4jnRcVluLk5S3KoJHMlpeUS26icPAiZF+ebvYyvmdKeEBOWnplHeOilZ2DFiVSS+YrPbykPggAIIxq1k/q+Kz2ZblH1rgAIq1f9TY8B3flm1lz6t63PyvU78AmNoH1tP/444My/enqxMsuHnpGwNzmTZkEu/L39EP4xTRjQzerxfXTnBjbvP4p3WH2GNHdj2XFvWrrsZ5tjB9xPrSfd4IuLthBfT2ca3z0a49EtrF6/k/DIEKLrtST75AHS8vJo3rU/sa55LNmaStu6gexNSiKkbmu6twtlzdKj9B/aTRqLxVDCu2+8x4T/vEn+vjUk7jmGs1cQwwe1Z9n8PTzw+D1YyjKZPieexx+dzJ9ff0FwXDNCGrfArSyDkjI9BScOcDq/iJNpFp59dBh7D5+kx11dsJRm8+ffxxk9tDOZZ4+TsOZvtC7+9O7Zh9wNsylr+RCd61kPi3+aicGWBkEOIJwX/OTkZPbv309oWCTt212ZV0NEPQhwIDZxfn4+rVq1qvaB/I84tW5BJ1UNwpWTfqt5EARASC7KJ8Lbn3KDnnWnD1cCEAr45tMVTJjYnYSNiWQUwqDBA8k6tJGdx9MIrtWEJr6lFLo3wbhtDpZ2ozm+ZRUl9gGEB3kxYGAfzOXFJP69kqRsE7X8fQj1sbD12Cn0Fg8emziGhPifCWvVk+IThziZlU+PgUOJDZP/+LwF4lvtJu9oDcKt5EEQAGHyXQOlhUk8cYg2ARGXAITKVqxKDHgWC1zGrmbrvUp+Ln0BVfSOr/T9yl6spNNXvKvTMPuLjwjtNpkBrS/a2S++auabj6fgHRRLmV8jHhzQgpWrttK1Zxc8XC/7IrJYsNjZYdHl8cGM+bz8/OQL1dQkgHB+0Dn5GoJkvqaqfQKoL1ZpBlSAcHsChDyLkdigUEr1Whbu2cJL7a2aTrlS8bySPzctWCx2lx+zl5yb4l3xg8v5Sqt0hldJ4m6PH6kAQWYdrpUHYfrONYT5W7MaijDHUfVbEel1Z6DK6y265fnZlLoHEOhaefREXlY2HsFBuFYARjURIAiVcICft6TCU6mUr7cUytdnNlsoLdfi7OiAi4vVxFBYVIqfDROD3mCU1K0Vi5qL4erXzBaT4snCHDZmJEsU6XrhpFhczBOtul99I+obsjOgAoQbBBDyykvILi2Wahf80rV8AnG0v/WEL3fKXqiJACErOx8HB3vMFiTbr1puzgw4OtpL+QZ8vD0kYKYCBOu832oTg95kIrUoH53JKPUnyN2LQPfK/UJujqTcea2oAOEGAYQ7T1RurxHVRICQk6chKMBHcmgUX7WXl3KdHjcb6aDLtXrcFJJb5RcW4W8jiZlWZ8DVhnOccOS7/Mu5Yj9FEjSRsEUkdamsGIwmHOztZH0ohKrfQTg62UhGpeQwWlquw8PNtnNrxXEIgFCRt0IFCLcHQLi9TqQ7szcqQLgGgJCeU0jzeuF3pmTc5qPaezyNxrFheCoc9GIYt1O658rCHEUfK4tiuHwJzgMEuaUpK9fhbmM+Sst0eChEfShdrkogQ+m5yA4nPJnlQIRQzTs6XHohVxyvkie0+K2ip3NpOZ4etuPUReZMVxmwpQKEmwkQihTX6jY/qv7R3RP72edcNI3Sx4EAE67XEMUgQLn4cLBlPk3NyCUyzMovVFkpLinHy1N+b4tIi/N7/6ZEMbSJuzRc7R8tDf+gzu84nEJcrVC8qhDmqAIE68KqAME6DxUPCTmRVwGCkBetlHJartwsE4O/r2o2uFVH83lfPHFp33EAQVNUKsuDkFdQJDl8yX6NVcgbXdlv0nOLKC7X01aGB+FWLWhNaXfLgWRiQnyrpEEoLCrB1/vSQ2bJkr8kMqGYGGsiIqH6djuXJ7yyOVT6Ms4vLLaZt95ktvIgfPnFDEaMuOcKngKRS0EUoX6XKyImXC72Xrxj61KzjlHZxFCgKcbPx0u2D0ptVMXEIPLFy8VKSznj7eU1CFUxMSgltVLStIjB2xqHWMeSsnK8PCpneJR4EIymK8woP/zwPRMmTMTe3gGhKXFylOdBKC4tw9PdTZ4HQcGUI8agNE6lqBilPSHxIJjNkn9GZUWj0bBixXJGjRpd7bBb4RwaFnx7c2TcyWeucMYV1jwRr6G0t8uEI6+T0yVcLhXnRmnvKu0JUVd2XiHBAfI5jYS8eLjJg9qKe8KuoLBYFiAoHehKh2lGXjElWoMKEG7R7hAAISrIB0+3i1TEcl3RFJfi4+VxyeOlS5fQpEmTCgDB9uWpdDEWaEpkvdpFw1aAAF99KQDCSCIiLg0BFc8lwiEHeUdWsVl9vS8dR8VBKSF8pTGIuioDUxXbUDokdHrhvS9PmCT6IMYod6kIU4u9MDHI+BiIi1eYIGypIXMLigi8BvAvxisOKzk/CbGOpWXyZgrxXCTNuhwEzZnzAIeKeQAAIABJREFUA/ffP0G6LJXGIbQc4utdbpy2+nd+vZQAgtI8KZ2BghlUIkqqQO5VUVY0RUWsXLGcewRAsOEzYusIKdPqCL+MHOwWHTk1slnxUSIuURHOqSRzAlAKmRcfAJUVJZkXAMLRUZgY5KdaCdQqybyQJ/dzH4I3xcQgp0HYnHaKhcf3CGohgty8+Ver7ng4KV9mVyOF4qtTHDYVDxGj+De7ypy8LOi0BlwUnNSupv1r/a1JpGl1cKpWkpOa7KQoN+9Km0M1MVhnTjUxWOchLTOPCBusdLeLiSHAr3KNVoG2jNkHNpNRWihdYYPrNKVb1MXcI9U5n24Ej0FldYp/E38qOr8q9ddiER8Z4my3cYMqVXKVz1UnRZkJu1YehCkb4pnUyUq3eSD9DI28Aq8+m6OhhPX7kunWpvLsjGdOJxMUFo57hcx/6zZvoHZ0HWIiIy4bWQFvPP8jb3z09FWKyLmfl+ew4Uged7U8l5ynerVc8tbZpF04125NSDXymqgA4coFUAGCdU5UJ0XrPCg5bP3TAYKUi8GopVZgiJTNceHuzbx4OVGSxUS53nRFdI/JoMVi74KjQ8XL1sCufUdo3bx62XArPxJNHE46RoNGcZekqz+VtBt8ookO8iA9I5OQiFrYm8rZsXkjOs9ourVpKH04aYuySNiwnVpN2xHmWkpyjoUWTepUmpXyOhzJV1ShAoQbBBCeXDkXzgmfsKs+3aYXjQIvRjwYjQZ+m/UF25KS6TnwHnavXczQx/9LY1893341gyKvJvRuYMcrH3zHC699TajxAF/MW8+Lr09hW8ICytLP4t+4K73uak/+yX18PWcRE59/g/zTuy4ABIvJwOLvp7Ir34unHruHqc9+jGeYC4Mf+j/q+5j4ZsbnuDe9m9Gt/Fi2NoEC1xha+hXz24o9/Pu1NwnQJfPOe9NoP+R+DAfjmZ2YxadTP+RM4k/szPPkySfG89Vn71OvXiuGDBtB/tn9ZJe40cA9jbWZoTinJbJkxxmeef55/po/E2+MlPs25vH7BrMtMYGCU0mEdruXtK2LWL1+E30mvUy/Jl68+8obmKJa8NiDo4nwr5xcSgUIKkCQOxBVgFAzAMKB7FRm7t+ICYuUCM3Fzp5Pe4+tIBYWik5v45Olp3j5kTGYtRpKDHb4+3iwadHXGOsMoXuzKPJzc3H19MHT3cysuX/x0L1jJI6HspJiSsq0+AUGYdaW4+zpgVGnlUxkJUWlCG2tj68XBQVF+Pr5SaaWwvw8XDx8EBxZxZpCXL38KczNIjQsDE1eDnbOHnh7ufHLL3O4Z/gg3n97Fo2a1KbPiNGUn9rI1hQH/PK249LlITrV8mbW1PfoMGo0i39bwjP/fphVyxIZNLivrJ3/eoMEFSDcIIAgNAgPdugt1b45+Qjtg6/M5hi/cBEDRw7g/SmfMuXF+3hyxkb+O74tWVkl5B5Zhlvju1m4diev3debhX9vpUv71mzauJFsTRHPPvcsiasW06zDXRzZvAH/6EC++GYTY8e2vwAQDq5dzNnQzjR3K6bQomH21KW89fYIvliUydguniQXOLD91/fpeO9LpBVbuLtTA3bs3ElggIVlq0/h5+vBgw+M5sDePYR66nh/aTIPNHMjQRNCfcdCPCKCWTj3Tz746H0p215Oagr7k1PJSoyn+ajHyc7Jw8PJQEpmFjs27+St995h8+8/49p1IFmb1uJedBz3zg+Sf2Q3/Qf347dvvsfOqYj2Y58jfedKajdqRkxoWKUrpAIEFSCoAMF2sqaaoEHIMmipFRBMqV5kc9xxRTZHfeoOXvjlIC8PjeOjxUe5u2UAZa5h+KWvoLD+AwSdXUOKR10yTyfz6APD+WHeEgkgFBfm8eU339GjYxwrD5TS3N2OdpPGcTpxPeGR/nz03GcMvP8uvl1ynMkj21DoEEAcSewuDOHEoRPcN74HfyxYzqOP/5u/l/1MPX97dpTVI8w+jx5twpm7Mpt/PTQIi9nM2oV/0mrgSLK2z6YwYiixeQtZTz9GtbcmAiwpSOfH+Yk88cgYFv35O12HDsff8ebkN1UBwg0ECONb3SXVvjXlOJ3DatvM5jjlwcFM+Hg5U0a1Zuf+E+Sc2EKzAQ8R//c2XrmvDz/Oiyc2tjY+geHsTNrHS48/xuqVVoCw6c/fMHo6sTwxn4njKgCEdUs549+KVr5Gyu1L+HHaKv77n0F8tiiNgU1L2XG8mD1LZjHy/96n2OzKXU0jWPHXQox2ZSRnuhDi78m9940k+dgRQtxLeXfhMe5t4sLCQ2U0DfeiabvWzJzzMx+/8ao0TpO+mGUL57Mt25tnhjYhYcdBSoo0OPn4ceDwET7478uU5x3l1dc/p8+9T+B+LB77Dg9SlnyIHn178Pu3c3Bw19Ly7kmk7FhNveatqaUChAsSqvIgIGVBtJURTjUxXDzQagJASC0vIcYvkFKDjlVH9vKfy7M55u7juZ8OcE8DDxyb9aGhXRpLDxcQV7qR/LrjcU3dRkBcC3YlbmXM2EH8MG/pOYBQyLrN2+k/oCszvv2Fus4etH1gHGcS1xEWFcAfP27l6cc6878FeTzZL5AlSfmU7lhAlwdfRnv6CM7RoRRm5tGtY3t+mTuLssJiRj7+DB46LU6FB5i2Rsdz47tcAhByds0lx783MfkL2eYyhJFtIzDqy1m15C8adulPbLA3y+b+QfNRw4hwUgFCZVe3kszfdB4EOSfFKevjeaSLNXHIxpNJtAuKugIg/L0mge79uvHt7F95anQv/j0zgZdHtuXNd6fTqWcbwur05ezf03Fq+wSN2McL03/jf59MZ/fWBB6+7142blhDw5btOLJuIYsOZmJf4sDwkXcRFRZNRFgoFrOJ5TPfZGWKB1NeepBfZizhX4/3YPaqLAa3c+fdj7+lY7QvEZ2HgYs3XZtH8cvXH3PCJYJwe1fGD2nDs//3PL0eeJnRfVsz443n6Xzvy+Rv+o4FR0y88crTzPrxZ/779JMX1mrXqiW4tO5PI89SPv/fmxy1b8zd7SLYczKZl//1uOS0Oe3l95jwziucWPgV9i1GU552jA5dO7Ls1wX0vacH7zz5JDn+9Xj5uceoHaJqEM5PrgoQVIBwXhaUIlZqig9CtklHbKBI1qRj8b6tV2gQ0Kbwn1dm88TkIXzw3Wo6twojOq4VUaXbWJNTH7vDiygNasyJE6f4+L0XmSMDELpHu7Io2QG7zIOMmzSWvyoBCL2jNMzbmE1OaipjJ4+lIOMiQOhcP4Av1xVRz8/MyHv68Odva3lk8v2XAARd7mHi49dz5EASk196ltx8HVkJX2FuPp6mkd5E1q3L6iWLuXvoUNkoINXEcBVESeVanWyYoxJjnJLHd1pOEflFZbJhjsLEMLR+K2m99mScpkethorZHK/34t5+9ZlJPbqfzceNjB7cptLunT24kxNlzpiKc2nTriO+XpV7MG49dJq64QF4VoEoqbKQ1sWLF9GsaXNq1bbyIJSV6XC3UZeSA6BS7L0IBxNeyzNmTOeee0YRFXUpwZZR5FawgKD1lSu2EteId8rL9VLudrlSVq7HXSEsNDe/iEB/eX4QrVaPq41IGKWLS8yjCINylgmFNBhMko1XNme8xLQon1NejD0rp4CQIPnEaEre+aIOnc6AiwyltFjHopKyK0Jnz8+7xINgMF0xxu9nzWLiA5Ok8QlNiJOTPA+CprgMLw832Xmw1b/z/Sgt1eLhIR8TnplTQKiNeVLaE4LuWwpzdKo8rK2wUMOyZcsYO3bMVXnrV5TfouIyggMrj3sXToonCnII9/KT0j1vPHuMlztZM+je7mXz8kVEtulOdJA1ff3lpSAzjewyCw1iL4ZDC1PDlv1n6NW1w02LZBByaGU3tL0nRP+Fv4aLk5OsPFhZUuX3rtKeEG1kZOfb5MVQCi6ouPftdDq9LEDIyi0kREbwREeqAhByNaWyAOHtjUvoUDdOWvfDmWe5u1YTavvKU0Te7gJ9u/Vv26Ez1I0MxKsKPAh5hcUE+F4aKrVIAIRmzaldywoQlPj5lS5XpfhcwXMgDtQZn01n1OjRREVeyoMgAQSQYvzlyrXGrSuNQbSr2IbOgJuNXAxKAEHMs0S1LJOLQS/lYrCX8jFUVqRDRiEXg9LFV1KmUwSWWr1Boo2trIg0GEUlpfhexq1x/rfiuXBMvnyMs2bN4oFJk6TxWcfhKBviKwEETzdZ/gDRP0FXbSvgTWmcGTkFhNkCUgo5K0znAIKzHEDQFCH4RsaNG1dtHoRCARACKr9Ej+RlsrcggwBPbwkgHE1P4QWFdM+3yzlWXlaC0WSHl4wMVdZPnbYMrd6Ej7c8kdn1Hp8AaOeBsuBAkdsTFwCCoFqW4cVQ2rs6iTxMfk+INtKz8wm3QZylBBAq7olbyoMgkMnx/CyJHMfX1Y0QD/mvsuu9qDWhPtVJ8cpVVtJyKIFeUaOSZk2JPEfpuZqL4WHpa1qJd14Q1Hh7e8gDBIWkWWItleyx//QwRzHGtOJCSvQ6iclHfIA528szkdaEc/F6j1F1UpSZUSUkkpqtISNXozIpXm+JrGJ9KkBQAYKcqKhhjtaZqQkAoYrHhfqzas6AChBUgFBN0bm1r6kAQQUIKkCoCWGORTYpzG/tKXTnty60jp4eVspvJfOhms2xgjxcDw2CxWygqMSAj3flSV/MBi3FBnt83K8vRfOdINYqQFABggoQagBAyC/C1fXmhPTdCefi9R6DXm/C18dDBQiXT+zNMDEcO3YIs703AS4lzJ2/nJ4jHqBJhDurFv3J/nQdD4wfyeaEdXQfMgQfx5vHv329hexG1KcCBBUgqAChBgCEgmLkcjHciHNFrfPSGVBNDLfIxGAxG0ncsJqGrXqy4vvvGP7UJF5+6X3+b8JI0g2OtK7ny9p1h+jd2IFfDgTz6LBmquxWmAEVIKgAQQUIKkA4LwM3IsmSeuBCfr4GFxdHPDw87jwTg1nElcmUa42nFCaGzLyiajspGg16VixeRM+ho3C1N5FxbDsfzz/Jg0MbYXJ0ok5ULdZtWMPAAd35bPpCnnnmQVVeLwMIDWNC8KoCD0Jlsf0L4+Np0bw5tWvXlmoVMbye7vIx40oRAEphsyKMURxi0z79VIoLv5IHwXSOB0HeC/umECUp5FtXilJQel6VKAbBEyBCASsrVWJSzMqzmSK4uFSLlw1+ANGuLXurWEeRetvPx7PSPornIqRLhCFWLN9++x0PPfyQNDaRFlvwB8ilQRZpt729rjGKobRc4lKoNpBS2BPWMEeTbFpswYPw119/cd9991abB0FwmATYSN0txnbq1CmKi4vR6/XSfg4MVMPJr9dlceJkMokb1uHp6Umz5i2oV7eObApyJR8EJZlXiuwRY0rNyCUyTH59lRxzK+59O7PYqTIlMyuf0BB/2XksFfnYbWyutOxCMnKvBSAY+GvREvoPH07O6ZMEhwfz1r+nMHTyROwdnIirFcnf69czZFB3pk77jZeemXy91vyOqMeqQQixeamfH2hlJEbxCxfSXACE2FjpZ0qkMmVlWtxtAIjsnAKCbcSUi4PUYrYwbdqnjBkzhqhoK8/6+WI0mqS/ihh/uZKTV0hQQOWkMeIdJWIbpTGIOnJyCwmywQ9SXq7Dzc1Fto9KREqlZeU4OTjiLMOlYNAbrURJMnwQer1BirO2kwEQomOKUQwl5Xh62k4hamscYh01xaX42gAIYhyXj/GrL7/k/gkTzgEEwzkCmspNh5qiUry83K8tzFEBIGRk5RNm6wws0+JhQ+ZFQiMBfAWRTmWlUKNh5cqVTJwwweZ62TqQ8hVMDKmpqezZs0cCKtHR0RQWFlKvXr0rAPj5NlYuXkJ4mA/uDbpS5xoiz/euX0ZMh4H4uUDe2eMkayy0aVIfoyaV39dnc+8QK0me5vhGTjs1pnmti8RdxcnbOWyMpV292x/IiEvfxdmR5FOn+PvvBIkkbfz48Tg5X+kXV1IiOBOccZLjOFHYu3qdASdnQcokb05Py8ghIixIVmSUAEJJhb1/S3kQlG5hs8lI4pplNOncn91LZlHmHsr+TBeeGdqI3//eS333AqjVk7ZB2fy0UccjY7ooVVmjnqsmhiuXW+VBsM6JIkAoLcfTBvgXdWh1elxdKncOrq4G4fPPP2fXrl1SH0X2QTntgXguAKMtsCiUo3JskxdAp8lsk3hLfLFdruWoKFWCJVGANbkiPr8syI9D9HHQ4EGMHjWq2meTEnuomE+NRoOrqysFBQVERERI/9+tW7dzbVrIz85AjyshQf78NvsHeg4bgpe3P46GEjKy8wgICceoK8WsLUFn54avqwPvv/IK49+YSoy7mcxcDUGhYbhVYP8szs/G1TeI0twMTh09TL6DP707tcSYd5Jp808wZkBD/AJDcaWUcjsvHA3FZOYX4+Pnh6eTiTKzKxa9ltLiQtx9g7BkbOPl3w4z7T+P4e5aOeCq9iRew4uX+yCcOH6U6dOnM3HiRGJiYiQA6OTkxMiRI7HYOUhESvIAwXYelZuhQbhtcjEor4mFY3u3onGJpG3cpbS7F941lrDg13jaDx1LhPftIzTKY7vxv1ABggoQ5KTsdgUIFfurdBjeCURJQtsjmDFtme6UTgpbAEGYFDZt2oTRaJQAgjAzuLu7S6a8Hj16SFXnHN3Ckn0ZuOh0dBo8gi0LfyXYvQy3Lo9gPrqcMzkGnB2cKNIX0igykCMpGlo3qMdnH3/IhBde4vTRE7jZ6fCv04Je7Zte6O7SL9+gdq+xbNm5BydtCYH1WzGwa2sJILz343aaRRrBN5b2bnvYbO6K4ewhLPb2mN3d6RCQw+ay5ujSThLhY6HY6EqEay7Tl59i+lv/JSzIQ2labtrzU8kpbN2yUUp/bTCaJO2dmPcNGzaQkpLCmTNnpL4MGTKEJk2aSaC2IqiMjIzkrrvukkxMSuZBpT0h2rlWE8M/CCAgJVMyWuxwkkXpFnQ6oywn/E2TktuwIRUgqABBBQi3t5PijQYI27Ztk8DAwYMH6dq1Kw4ODhw+fJi6desSF2elud/44we49H2BVoEmsHfk9x/mSADBqf1EFr99PzuTCwiLqkW7PgN56t4R7NqyDp/I5qz4+gMGThrBE/96FZPRROtBD/DRCw9cAhCco5rh2KgPceZTJOVZ6NmhhQQQPos/yzP3NueXRRvpGX6atYUNsLj7M65zfVYmbiLOPV0CCA6FGsbd08Oa7rltXd6cf4hpz42/rU5bYUoT6WGsPAhWrZoACytWrODtt9+mpKRE6u9DDz3Ew49MljRSFTUIIhdHly5dCA0NVQHCbbWyd3hnVICgAgQVINRMgCC+YIXfQU5OjiQCLVq04MSJE8TGxuLj4yP9OV+yDq1j+QkDvuX5NOo9lD1LfyfYrRzXTpMwH1lNqZ0HtevFsXPXJkYNGcqerRvwjmzKjj++oGG/Yezfn0K9aD/qNGxCkI+7yKeGnZ09a77/H9F3DWfzwdOEO5ThFFqfvp1aYMw/xXs/7aBHY0/y8aad+0G2mztRlnqKIH8PMktK6RRSyNby5jhoNIwe3o2ERQtp2bklH367kH8/9S8CfOSdpW/2sV7RxJCXX0DSoYMkJSUREBBA7969mTp1Km5ubkyZMoXKnBQXLlxIhw4dCAsLUwHCzV68mtyeChBUgKAChJoJEIRj4o4dOySzgnA0FupuYVoYMGCAZA+/vKSeSqLE4kX92Eiy0zNwdjDh4BeFsz6fg4dPEFWvMRZ9CaHBwRRpCnB08cRYnEmhyZ1QTzhw9Ax16jfEwWR1JMbRCV1hOl7hddCcPUJ6oYGoWrUJ9PXEYijjdHoBRfmZRNWJw9OcJ9WzbskSykTUh4s3owe0p8TsJRxNCAvxIy8rG+/AYM4eO4BfZAP8vOSdgG/2mS8ufQ83F0kzs2DhQjp17EjLli3x97/SwV8FCBVWR4Q5njqbRb3I298T9WYL1c1o73haHq3iovG04VF/vh+VRTEIZCu+PM6HOSpFMSilCFZKMSwcvoRj2rRPP2Hs2LFXhjlWKYpBQ5BMZjsxVtVJ0briqg+CdR6UPLpvdLKmG2liSExMlNTb2dnZUuSCiAwSamy1XN8ZyMzM4auvPic8PJyJDzyIq41MripAuAwgqMmarq8wXk1tqgZB1SCoGoSaqUE4v+7l5eWSelun00lhjkKLoJbrOwNnU9NxdLCTTATVycVwW5sY9h06KcuDoBTioxRmlFNYhpevF+0axVzfFVFrq9IMrN91HFd7M242EO35igwiz/hlsbnrElZTr34cERGR0s+U1ttoMuHoIM9RoDeIuHb5A1s4UwlhnPvj9/TpN5CQ0LBLxnmessNWDLAg35GLOReVKYWlKY1B1HGtbSj1QTy3s7eTDfEToXEiDFpuHoSDlOBAsEU8fq17W5pLs1mWrKkq8iL6KTy35YrScyV5VOpfVfp4rfMkJNpiRjbcUmjMBGeErVBJpc0unN7q14m0GRuvVIf6vPozkJ6VR26eRqpASeYESBMyX3Hvrlu7mibNWhAYGCQ5N9rau0p7QvRBpzPYdNpX2jcVn99SHoSs0iLEH1Ec7e2p6xeCs40LpvpLWDPfVDUIqgZB1SDc+RqEgsJiCVC6u56zy9sg0amZJ+GNGbX4YBEfVgLgCcIuUe44DYLFBpPi9aBatmVimLp1BTHB1q/ETE0BQ2ObUssn4KpWszJEVlkFJqMRewfBQHVV1d+4H1ssmCwWm19g4tPj+MlT1Ktbt/J+WLQcPppLXEPrF/7lRQUIKkBQAcKdDxAEdbegYzIYTNIX6OWlXKvD7Tx4kBGI8/H7cvKi9FypDaEpEepBOeIq6cvZzk5WC2IwGqWz0pbGSamPSs+VfKjE3FyuYRTaSsGceL5fKkCoIEHXms3x1fULmdixt1TjwfQUmvgEUc8vWPZSNhj0ODo5X1SdWowkrF5Fk5YdCbJB4SsqTPjlO+rf/SAR3vIqcFtoQIQNOYm2rxfAyN/P3A353Dusu2yzp3btIN8znDo+Bv799FO0HfdfHhvaltU/fMKUH9by9eyfcU76g5y4++le50riEBUgqABBBQg1AyC4ucqnu89WyB0iZEQpj4qSc69SG0o06eLyFqyZcqYWkQfG2dEB58tyd1SUb6UxKAEAJYdU0ZZSHhUVIFxHgPDi2j+oF2r9+k0tyOXeuHY08A+50ILFbOb4kUPYmcrRedVi3/oldLl7JPaFGfiERZO05yDlJbkSQMhPO4bBzgnX8IbUDXIHi4FtG7fi6euDX1Q9dv32Jf7t+lJUWEaXFrU4k1uGqz4Pr4h6JK1dS2jLFugLiwgJD6RAoyM21JXdx/JwcbKjaaO6zPn+S0ZMeJrUA1twcPfGM6wO2tN7KfcIo0VcLNqiHM4U2RPp70xBQT4px88QEhWOk7s3LqUpHC1wpoGfmWKfulgKMqlTy5+TKUUUnT2FU0QtMOiJqxvGti0HcXMz4xLdiuJjm4hp0I6S5B14NOjAT1PfY9iD4zmcVsqA9o1Zs2IVvYf04vvP/uDR5x7ich5JFSCoAEEFCCpAULq8VYBg3SUqQLDOw23DpDhlfTy9IupbNQh56fSv34y6FTQIJqOeWV9+RovOvQmPiWXTysX0GDaCM3sSQavh7/QQ2oeW0qRRFD/+soGRQ9owe+lp3nx+DEXJ6/g60cTEXg2w9wxk1/zviOw5kl+nfsZzH75MqaYcTcp2CuyCWPLtIv794Ytoi4pwcbFn66ZtUJRBYOdRRLrqiYiK4tc5nzNk8EDe+WYVT41oxS/bymll3k9Yz3E0jw3GWJbFd3M3Mqh9EMn6EMLcTJjLCjlZ4kpY4VrOhA2jT7SGmfMPEh4Tyj09Ipm37AS5x5MZ8fAYtm3aRX3fXLaUNaa1cxKbPXrToGwbTTsMJtTLCU3maZ5543Nee+5+Thfa0blZXdatXkGXgSOZ98UMhv/rKXwvQwgqQFABggoQVICgAgTrLlA1CNZ5UArtvX0AwoZ4HrtroNTpxBOHaBMQcQlAEO4RBfl55B5azW9HAmjklUOngUPQp6cwa9Y8HnrrNZI3rqJJXARzf9/B2HGDMNi5ERnmi+bkar7b4cEj/Rpi5+rFrgU/SCaGX/47hfZjelGgd6e+TzHZ5a78/ecO3njrPj7+YQX3DevBzq1b0eakUmfgQ8R4mggIDODX2TMY0L8PH87ZzTMTemBydOfoqt+tZgsfq9liyfezydaWc/eoQbz61nyemdiB4xpXoks3UNrsYTrX8mLGlFeJ7j2MIa3d+W3pcTTpBUx+cjQrVm4iyvk0O+060c5pP2sdu9GgdAdNOw7AkJGEc3Ad1n/9GoE9JlJUVErPtvVZt24jfYcM56cZ0xn95NP4qACBm5LuObeQYFvZHLV6bKl8ldSUVUn37CiyOV5LuufMPMJD5f19Kh4SciDjRiRrqtiWEu+8movBOltK8qQCBBUgVNxX/xyAsD6e+9tYM4ptPXOMTmG1LwEIZrOJA3t24elmTx7hBNjlYfEJI9KlmJmrDvLkuEGcSU4mKCSCk/u34OwbSEaJF93b1AIMrFu5Bt+gYPxrxWHJOIZ/3WYc2pBIeIMocjVayrOTCa3flLSjGXTp2pjNu5II8XUis0BP67gwthzMQWRybd+2FUd27yC8YXOO71iHd2gE+SYfwsmT6vRysYZqlWcfZdXhEoa0r8Ofa3dRL9AVg2cYUU65GIJbEOnjxK41v6CP6EHHOi4knSxAV1xOizZxnDqVSmS4Dwlrd6PL2k1e0wdoaDhCRO04XHUZZJQ6kpqSQd/eHdm+6yCxkX7klTrSOMyeLxft5V8Thl4R1qZqEFQNgqpBUDUIKkBQAUK1AYJZBFXLlGuNYkjL1pCeV0S7RtGVtvDahnge6dJferbx5GHaBl6qQZDr1/xvplPrruG0iau8Xrn3bvW/J/01i/isEF58cBCO9pV7O3799v8CVBCMAAAgAElEQVRxyr4Rb730KObCM/y2MZUHh3WV6bqZWV9/zbAHHiWgkvSnEkCICcHTXZmWNDe/iED/S5O/Xz2Tog4PG21l5RYSYuPLu6YwKWq1esnzWa7cFA1CVh7hIbY0CFo8PVylRD9ygU624q3FO0XFZfh4V551Tzi1ixAx5wrpgS+fD8E3ITLjyfE9iCQ53p7uss+VOAxEe0pq58zsAkKD/WTXSsl5TxyvQq6dnCp3jhZjFA587ufYTm158st1QkmDoKRVs86D7b2rNE6lNpScFMVzMXY5J0WxTkIWbrWTotLevTOcFK17X5RbyoMQf3QPqSUFF+R+bKN2BLp53up7/I5pX9UgqBqE6moQhBpShHRZo9OsYNZGRHSlzdgitLpjNtl1HoiIkhKh214erlJWwKoUJYCgahBUDUK1NQi3kgehKsKv/qb6M6ACBBUgVBcgiK9/g8ksAQTxBVyoKcJD2Nts8jNebE2n00uphT09VWrf6uxgZ0d7vDzdqsSOqAKE8wDAthZESVukRjFY5/G2cVKszsZR36n6DKgAQQUI1wYQrOaFrOw8Gje4erp0YaIE+ysovKsuwTX3l06O9nirAOGCAKg8CNapUHLcFb9JzcglMkw+QeJt5aSYmaehVYPKmf5q7va/OSPfdeQscbVCq+iDoCHQ/2KOeNHDq/dB0J77yqx8fGo2R+u8KH3x3RQfBIUoBqsGQdjPTWi1WqIjKicws5Ufo0BTgk5vwtGxeuRkN2eX3J6tqADh0nVRAcIdChDUbI637gBSNQiqBuFaNQjCecxg0BEZFnShKgEKcnJymDJlCikpKTg6OnL33XczadIknCok4xJhiFoVIFTrAFABggoQKhOcO06DoAKEap0P1+UlFSCoAOF6AwShTZg+fTrffvstjRs3ZtCgQZw5c4a///5b0jTMmzePBg0aSLZzFSBUfxurAEEFCDUeIJQYdOzOSpHmwcnegXZhtXCwk0//Wv3tVjPfVAGCChCuN0CYM2cOH374IX5+frzzzjskJibi5uZGYGAg77//PrVq1eKLL74gNjZWBQjXcOyoAEEFCLc/QMjKI8xGrHRxaTleHm6y2yA1u5D0XHkehLc2/sWkzn2kLF/70k4T5xlAHb+Lqsxr2F839NXCM0fJ8Y6hnp81VrTyYmLv7gO0aNXihvbFVuVXBRDyNAQG2PZBUGLXE3ZCT8nTvfKi5INgDauz8OknnzBu3DiioqIuqUgpllr8OCe3kCAbXAul5Vo83OT7qOTpLNrIzi0gONBGbLxWdzH1biVToZT5rio+CCJeXGS3kztEnBwdZTPniXfSM3MJD5V3ZNIUlWI0I8XoVzQxNGnShPLycoYNGyZpCj744AP8/f158cUXee+99ygqKuKZZ57hqaeeUgHCNex8Jwd7vL2qFsVQpiBv2QrMn6KbSntXad8otaG0d0W2RqF1cnSo3F9FnD0ic6ItHgSlMZSUlePpLn9fpWXkEmHDuU/Mk9LeLdfpcbMRnlpcUiaFrzo5XaS9XbBgAR07diQsLExyQrS1d6tkYkjPITJc/h4tKimT+EPkSnFpGV4e1ue3lAfhhbV/0LZ2A6kj6YV5DIiJo4F/6BX9FpfG+Zjqin8XPxRhWCJ2OPvscZz8Y/DzuBg7fPlvL1YsvLPFe3bShSRXd2FuNmdzCmkaJ/JFCD4pOwzaUjZs2EmHuzqTfngba3af4aGH7kW0mp9ymAWLlpCpd+HBRx4j68hG3EMb0yD6YgKqazgzrvrVqwII+aqTophgJcIYK0C486mWzzspXg4QhHZgxowZBAcH8/bbbxMfHy9pE4TGQACEgIAAvvrqKwSQUE0MV71lL7ygahAunTvVSdE6H1UCCP+kKAZbPggvJcynZ0PrF/bhjLMMrNWI+pdkczSydvUyfNwd2J/rRwv/AjI96mM4tZ223bry8w+LaRJXiwbtOnBq3S/4tLmPdnUDKUw5zneL1tK9dT3yDN5ojx+h18Nj2L58I916t2H2zFnUCvBgw5FSmtX3IaLdPXjn70RTZibxQDZD24eycOMp7u7XHb3RQEDJHrbnBVJcYmR435Zs25VE/z4dePelf1PkEMl/3vgv/s5QnHUWvVcYB1YvJuSuAbhnHeVsqQNdWjet/klxDW+qAOHKyVNihFMBgnXO5ABCSUmJpDWYO3cubdu2ZdSoURw6dIjVq1dTWFjIzJkzadOmjcSBoAKE6m9eFSCoAKEy6alRAOG19fGMbdlFmodtKcfpGlHnklwMBr2ehX8tYMTIsViK8/lz1SaGDu7P4aN7cTKV8tXXS3j+tf8QEezH9mUz8W4xmuYxfmQf3s3OfDc6NQhh2/bdHNmwlfvff4HlMxcyeuJA5i9JYFyXGN5aVMijHYz8fDKQBgWbaDdyMrt//oCy4E406dwYb105B1MySVj4A//95CuctTqKS1LYvS2L3oMa8Mk78Tz7dB8ee/svvpn6lDQOTWYyy7YcYsTdAyk5c5jtqQYGdLs1ZgYVIKgAQe6KSq9imGNlUQyizrS0NB555BGKi4slDVy/fv144YUXcHa+qMFTAYIKEM7PgLKJwYS9DaplVYNQAzUISrkYTEYDf/z+M+1bN+dUnhOl6UlEt+xKxqFEatdvxIEj6TgWZxHSoTcc+QtT7cF0bRJxBUDI3L2OqIEj2LpqEy/8e2KlAKGFYTc+dTqScewonl4+RLS6CBDy9iwkrMt9mMqNtGwYzI6dx+nTry2zps+kZfs4lmwt4+GRrXA2FrN84x46dutP7XB/Mo8ncVRjoVcHVYMgxFvJB6Gm5GL4J/EgyAGEqlx9KkCoyixV/htVg6BqEGq8BmHK+ni6BFoZ2g4XZjO4UctLNAjC7l9aUoKDPWhNjrg6mDHZO2ExaHF1c6VQU4qbixNOrm5YDOWY7V2k/zcZ9OjNdrg4OaDX6bEYtRjsnKTkMP6+XpQJRzVXR8mk4OkCpUZ7XOwMmC32aMu0uLq74ejshL3FgsFkwsGso9zogNliwc3eyMYdO+jctTem8iJEqiuzgwt7tq2iXtMueLi64uXugp29A8cO7sDiGEBcXGz1T4preFPVIKgahGvVIAgfHU1hEXVqh1+1JOYXFqMzmCSnK7Vc3QyoAEEFCDUeIAgNwuS7BkrzsOHEIdoGVC2b49Vttev/6z27dhLVII5Az8oz1Z1vcfPqVbTo2Rf3W0QkpwIEFSBcD4BQUlIm5QVwdLS3+upWoQizg2BSFCGQ9jKZS6tQTY39iQoQVIBQ4wHCltST5Jm00qEjVJm9ouvj5WwrdLDGnhfVGrgKEFSAcD0AgqhDOEcZ9Iaq4gMpba+bq0uVkg1VS7jv8JdUgKAChNsCIJhMQkleecnMySc0yF92KyrFjKflaMjMK6Jto+g7fDvfnsMTAKFhTAie53LN2+plXkERAX7el/wkPn4hzZs3p3Ztq4lEab2F6cbdBseAUnig4P0XKu1p0z5lzJgxREVdKjeCJ0EUuVhp8Sy3knDNioNSimJQGoOoKyevkKAAX9npVIqV1ur0NlP5iphzJwcH2ZhvYSoTF7C9DA+C3mCQ8h/Y2yAdy1DiOCkpQ8RLq+XWzICbqzN+Pl5VAlhKPi05+RqCLsuzcvmolORead8otaG0d8UHoghXF9EvlRVx9jg5OeBcgcr7asegdH6lZ+URboP3R7SntHdFFlMXGzwIgs/BRZjFK5jdFsYvpEOHDoSFhqG0d/WCJ8HJ0aZcpGXmEmGD40SRz6a0HM9z/EZ2p86kywKEklItnh7yX/R6vRFnZ3n7YlZ+KQ7OTrRtdPWZ4G7NtryzWk3cexI/dyc8XJ0UB1ZWrsfd7dL886tXraBhXOMLhEVK6630XCmE0Gy28lPMnvUNAwcPITz8Uru3eC6KLZW10kFmEDZxJ3mbj9IYRPvX2oZSH8RzMUYBAiorwplTqPDl5sFoMkskSuLAlStKhwQWO6Ijg2X7oChQ6g+qPQMCJOcVFFNcUlqlOpTkSUleRSNKcq83mHC2sW+U2lDauyaT4KOR39t6AYrt7W3Ko+IYFO4rJeI/MU8251powk22k5OJPgoQ5OBwcXOuWrmCFi1bSdwiSnvXaDRLc2Brbytla9TpDBJIkSs6vRGXc/f6DSdKOp2WQ8OYyjPBVUn61R9VewaOpGTTokFUlTQIlX15q9kcK596JU2I0hed0vOqMCk62tIg6I1WDYIN239Vwhw93F1VgFDt3Vf9FwVA0Gr1uLo6XxcNQnZeIcE2NF6ip0rgXQkAKLWhhjla5UGAEFdnp0uYFMU5K2kQwsIkoGZr79YoHoTqbyH1zarMgOqDcOUsKR10SgelqFEFCNZ51RUU4OjmhoOr6jdUlf1Y1d+oAOHKmVJ5EM7tOb1Bopw+z/5bmUyl3ilMilXdMOrvqjcDKkBQAYKc5FyrBqE4OZmzy5fh6O5Bvfvvx07Gdlw9ya3Zb6kAQQUIcto/VYNQs8+G6zp6FSCoAOFGAATNiRMkffkFbV58ifKcHI78Ope2b79TZZBwdsdCEuy7MKG1NaHMtlU/YXQPYntBDM/eHXdd98A/sTIVIKgAQQUIwHubl1IvLArhrpFWmM/Q2CbU8pHPMFdckIe9lx8eIh77uhQLmWmZBIWG3Da2VoOunFK9CV8vT5sjPHHkMDEN4nCy4YimAgQVIFxvgKA5fpysxETqDB1K4bFjuAb4YygrJzfpELVHjLxgbjCbyji49wTurmacgmJxMJYTFhpMfnYqucc2MS81nPtahRIYFU3Surl4NuyFq5sfQc5llOstFOZkEtu4JW41kGNJBQgqQFABwv+3Yb6c8Cf1QiMlacgp0TCiTnPqVUjWdLmYSADB0w8Pp4sA4dje3diFxVIvRD7sTP6mNfLX/GX0GdQP1yqEAl5Rj6GUJRt2MrhXt+sCV0QlBu05gOAtDxCKU3bw8x4j93evw8zp02jQ4xEGdK19RR9UgKAChOsJEDRHj5KZuIGYPn3JO3iQIz//hIuvL61eeBFdfj5n16+nydNPY+/oiF53lp+/3UCPPjEsWZVCcHQgQwf2ZMvff+BgMbKuOJYhoYUcc61PRG4i9j5BrMuLpYvncbwjW+JclkNUo1Z4ulyvj4HrtkVveEUqQFABggoQgCnrF/Jg576SNGxKPkL7wCjq+V2MeDAaDMz8+C3W7D7Ns29MxXx6N74deuOVvpc3p85g7BNT2DrnXZZn+TL7jXsooDZ+KfM47NmJ1OPbSdUE8NBdwbz47g+89MEndGwYhh0WdqxZwIezV/HGh+9yPHEtZ3cv5axfV15/dgKb/5jOHztLefvNF9nz88es14by3wk9eO65Nxj2xMv0bV2bn7/6kC05fjw6pCkvPfcCAx79msGNinntozk89+57ZO9KZOvq33ngwz+p63yWKR+v5NXHuzPjr9MMb+PGm1O/46m3p2HJP8Sqn76h6eCHcbC40Mb3DL/vdqVZk3Cc9i5hWaYJu+BmvDH5bn7/9mM2ZIfSoYU7XrkmOj00Hn99ObrTifyyP4THRzdXAYLEUaAhKMBH9hBXnRStU1MdHwSz0ci+D96nwdhxGMvL2fraFLxiYmj331fJ3rObsoJC6oweLdWv16Wy6Pd9DB7RiG+nrSKkYTSD+ndj05r5uDvZsd+9C8MCz7ImP4h6xVsuAITOHkcIb9SLMC97XD29qRANdsMv5tulARUgqADhnwEQsvIJC5EnSlKKpU7NLiQjV54oacqGeEY16SBJw87Uk9wVVe+SXAxGg574hYsYMHw4M997l9jmLYnu2pfTy3+l04jxHFufgA4jHg1aEVh0hAxi8UuZS5JHFwq19tzbpT5ffj4dN/8IMs+k8fzbb+OJgUXx8xk8/B42bdpAXmoB/YcO4vC2NbgH1WH7jh1knNxPq9HP4Lx7IdGDHyZvyxIO5+Ww94ye1x66i61HzfRt6cvuM3q27NvNUxPGMu3d/+IQEMvJQ8dp3akjI4YNxNvLXRrb4m8/wBjVgroNmlN0dCNH09JYvbucZx7oiptXIHXDg/l7wzpO7ztA7xGjyMwvxmnvYpwHvciBud/RYdIoTu8/woA+7fjyh3gc7C08MWmSVLf2ZAKzd/nbAAgheLkre5lXRnQiwm8EUVJsrJUoSYkXo7RUi4cN3gylZE0iFKoiUVJ09GVESeI54OQoz2OgFG6lFKWgRKYi5kEpikEJhCiFOYp9JYhU5GKVrbHU8jHhwpFJzJEckZIYgxKZiqaoVCJLuZyLoTwri9QVy4nq3oPynGxc/AMoSj6FvrycyH79sT9HZKPTpvDtJ8to1yESx1rtsWQexzMogONHjtG4bjhr96dTP8SLus1ao886jJ2rJydL/anjVkixwY7MY4do2284Pi42bGi3y41+nftxHiAIwp2q0FQryZuSvIruK8m90nOlNqS9bWPvCvIv4ZkvQvwqK9KecHLExVk+fl+pj0rnl9KeEP2ytXfFugmOARGeKleKS8okIiURiXC+LFiwgI4dO0phjkp7V9Qv5sGWXKRm5BAZZvXvqawo8SRUfH7DeRAycjWyTIoCIDwoMjECm4UGITi6UoAwcMRIvnz7LRq3bkV4576krfyF1kMmsu6HWfjERuEX1wr/wiQyzNF4nZjLicCeaO09GdU6mkVLl9G8bWc8XFwJjwzDYjQQ/+efDB41mt9+mYmvWyj9B/cjaVsCpeUa9mqjaWw5hqV+Hxx2LaT2kIf4efrrjLt/PPMWb+XRMR3Ytr+I/i3c+WNHGRk5pySAMH/OTBp3HYCnkx17d+6j36C+uJ27mIsydvHJV4n869lHWPb9d3Qe2YNPpi5nwsM98PMJon7tKBbN/pwDDk15rHsEB1KLcd67GO+Rr7Fnzte0nTCSM4eO0q93K76YuRgvx1LGTnocce0rA4RQKXmUUpHjQbgqgFCmRcTOyxUlgCBlczQLJsVPJCbFygCCqFvuEBHPrl2DYHsMVQEI5eU63GyYrJQAQlV4ECSAIMekeF14EErxcL8SIEigND+f3W+9SatnnpVMDeXFxdQeMQIHl4tyJjQIyxYmMXRMn3MhWVYSLFHElX+enU0K1xIPpP/YSQQw4qAV/2CLDEZJnv/Jzy8ABFdnKQWyUlGSJyXQXBWAUFamw93GOaLURlV4EMRQ5VhSrwdAUPqAScvMIyI0wOZ0K821EtOiuHxdBZOiDEAQTImOjvIA4GZEMdw+AGF9PCMbtZUWZGd6Mt2j618GEAx89+n/SEov4ZHnXsWSuh+PJu3wzDvBjG9+YOgjL9HQLY+3Z//Nfx4bwswvviI00pfo5n3R27vRr2U9Ug5tYeqXvzDy0Rfo3jxGMjEc3p7Ad3+s4+lXXiJ17x7admrP6aTduATHsuanj8g2+dJh6AR8U7cT3nkIpuQEvlywgYDAhjz92D0snfc9O3M9eeWpe9m6+EeSXTvRq1Yxn377C8MffBr73FTadGx7gXJTry1n1/adtO7SlSMbFxG/+zR2WmdGjuiGp4cvUWHBJCxZQ1TnTgTpCziZU4bTiU14dHuAYyviaXfPAJbP+pzdWWZq1a1HnwgnskK70r2RP/q03Sw75s2wHnWvEGzVB+HKva70taWkYagSQNDqEVS5ckXpkKkKQLjVRElmnY69H07Fu25d6o4ZS429zZVu72o8V00MV06ayoNgnZObARAqWgZuuQZhctcB0sATTyZdkc3RbDZzOvkMMbG172hbpMmo5djRM8TWq3OB4rLiFtFrtaSmZ+Bs0lDiHEGDCDc2rVpPo56D8LdhPVABggoQ5O6n6vggXF6XXqORtAYqUVI1UICNV1SAoAKEf4YPQnY+YcG2fBBs52pIzdZgy8Qw99A2Zu9NlKQhxNOHz/rdi7+r7RTK13cr3tm1qQBBBQg3EiDc2bvn1o1OBQgqQFABwq3bfzWmZRUgqADhWgCCcAiTSxhVYzbRLRiocMEQWf3c3aqWLlvJZKXkHyCGqGRaUzLNKbVRFR8E4W8hJ2+qiaEGmhhuwd6rUU2qAEEFCNcCENRkTbfmuFA1CKoGQdUg3Jq9V6NaVQGCChBUgPDP2/IqQFABwm0DEMznE3VXso8yswsIDfaT3WFC7eNpI6xN+CBk5snzIFzT1tUXkLA9nR5dGl9TNXfyywIgNIwRPAhVCXMsItDf+5LpWLgw/hwPgpWlUWm9leKQs/4fe98BHVdxvf9tL1r13osld0vulnvvNi7YxgQcSqghjRB+CaEkQKgBTA+hGIMNruBewb33XuQiS1aXdqVdbe///7wn25K9780GN9medw4HH723b2buu3fmmzv3frfGiPhYYcZLLs3R78cH70/HFJLmmJrapD+kFjpJkLuuaY52J0IorJrVehPiYoTJmGguX9p9PouB5HwH5hl2uRtqyguUc6aVjCVCDSZIMRAPwu1sL81lbAQgEB0h6XBiVfsu9JemT7TU32txxEBrg2a7bo+X50GQBWbOJDZBuEGUAjYRzBho8xPNJkgbNFk7CA+CSpirgS/3rIRCcYnvgS/3THgQEoIs90z0Qlhbyyr0SE4UKVlgsSNUpxFe1612jgOFXDc1i4FmkH6fB8t+nAO5xInjlizc11mKz3ZY0CGkCrl9x6J62yzEDv09WsUIp5TR2rid718LDwLjQbhSQ2ikMLczD0Kt3Ydqs/cKoRCs0iJaAYH5/XY2s2s+NsaDEMCDYHVwi+r1JUpqDjwIHm4DdDM9CM2GB4FmWW6XG8sXrcDoKePwxRvTEd8uA32Hj0L16RPwyhVoEenDxkM2jB3OszGyq6kErgVA6NixIzIzeQ8CjWiEhtCDIkry+/H+9PcwdepUpF7hQeAXpuvqQbA5EULxuFABwm3Mg/DuBgPuz+N3SMeqfYjSSJAYKkG904+NxRI8mt/UCxW0TRpP44lPT+Czv9/F/aSmYDP26BMwqnfLoF9x9Q/6sGDpUowZNgTbNu/EwGFDIMTZaTAYoFRqENrAlnr1bV96AztiCAAQbA4o5TIoRZkUxW2XNj9dG6KkYDwITYmSeA9CPsekSPP+3VE8CDSjIgBhxY8rMHrqeMz413RE5iZj6LC7UHb6OAcQslLj8POmA5gwegTtVXfkfQYQrvzstGhsWjQ3eeOdDBBe+0mP0S35o48TNT5EaiRI0Elg9wD7K6V4qjcPENyuGsz9cgUiwr04a9UgJUyCvCF3w3FyO9K69sOW+QvReWAuNh7RI01Wg5SMdEx79gs8/9uxUMW3QHttFfboY2Au2IKEnFyERsciznEK+6oUMDsVuKtfe+zatx+WcyfRdugEbNmyEV3aZGD7rmPo0jYBZx1x6BjpgiEkFfaS48gfNBjLv/sWYXHpyO3bD+mRDenUfh/2bN8MiUyKYyV2aFR2jB02Ajt3bkL7tEgs2W9FRiTQPb89vn/vKyS0Toe6zSCgeAfCY1qgdTKw/WAxigwePPXA+GsyzzCAwADCzfQgNBuiJJo1ed0urFq8EN2GjMK3s79FflYa1B36AtUnodPFIyXBh82bKjB63LWrpkjr0610nwEEBhCE9JV23lpvtnG02Zennb3+kx6jWvIeBHIeS86MCW2swwPsq5RcBAgXqJaHd1fi8x2hGJtSgVWSXLQp34h2Y+7DnFf+hZTBXdE1twu8dgP0545jxk4FPns6H+99vxe/7huGDfuLcdqZhqfHZmDFgRK0te/FHl9XjO7bAfbyfThmjMXQ9Hr8Z1UJorJbYEL3Nli7bhNGjh2E6W99hCf/8Fvo1Frs2rAGKl811td1wCPdXZh3OhRPDONjl0hBuGWLFmH4xCnwmA1YuWULxg0bgfnzZ8JnsmLUk0/j5LYNyGqbiMUz9uCxX+fh5YUWDM9zIyY6HefWf4WcqS+hcN6baHH/P9DylxSVvewjMYDAAAIDCEGttH4UnzyI1Zv3Y9Tk+5Cs82LFgrlwRbTAqKH9cHjtHGjaj0JuunAgZVDN3KYPMYDAAMK1BgjT11difA5fScFBeOOlUu7Ix+mVYH25Br/txQdvcgBh8QmM6KbE57vCMCa5DKv8uWhZvgaR7Xriu7e/wZgnhqDOokHrODV0Sjd+/956vPWHodhwoh5TOquxtcCCfccKMXl0P7glGiRIqlFuk2L+yr14+t58rDtQjY4pEpgl4Sh2qjChe2usXb8ZI8YMwvQ330dqQgTSO/XFqR2b0b1LDuZuOocJ/dpCGtcKnbL4IC6f14MlCxegS69eKDyvR5WhBHc1AIR4rQTmyC5I1njRLjcBsz7dhMem5eGfC80Y1dEFmSoG/uKNMET1gNRYhb533YUw4fi0oGcZBhAYQGAAIWhzCfygo/Iktldq0T8v7bamYb4aMTGAwADCtQYI72+owa868CfzVruTAwcqhRxWtx+rzynwZC/+iMHvc8KgtyIqTIZykwzRKidqoUOIpxb1dg8sRieyshNQZTBBJZNwUdWnzlUhJkILTVgUwpUe1LsVcNbXAHIVlGodNH4Lam0++CBHcnwEqmv0gM8FlS4SHr8MsWFa1BpNiIqOQOn5UmhVCjg8fpCjyoTEBBiqyiGRKRCiceKF37+IWgCpPe7C3+4fBBJ97pEooVJKEBMZherqSkSGaVFWY4FaKUdsbASqy41ITNChqNqLuDA/LA4PokKVqNLXw+sFUtJTIKfXVqKaNAMIDCAwgEA1E/bA1UqAAQQGEK41QHhnvQFDWvAxCFa7Cwq5lCtda3MDBXVSPNQt9GrV9ob83u+7VFoymFTCG9KphkYYQLizAMLcuXORlJSEmJgYkLLXBHQL6SRJcSal3MV0tkpvRHyM8FlX4zir8PBwJCcnNxF4kxiEopLKC5VXr/gqjR8MZCAk4lIsL7Wq1gKJXI5ubdNvpH2xthoksPXgWUTrVNCq6X7PQMF7P61ZjdZt2yI1NY17I+17E+VtXOf88g9By4IgkzaZHGd89V+MHjMOiUlJTV7BU3b4IRUoc8wtWmZer2UAACAASURBVJSS08QAG5davbyPtPvBteFtkud8eRuEdlYsE4P0gYxRiHaW8EWQHYbQJEG7T/pDqwlP6H5Tk2Kv6MPOYicMNsJHQQoy+xvKNvOlmfMSFUgOD8zdwIwyeAkQG6g1mkHm32Aut1tc32g2wdk2xXZpdkFrg2a7pDAf0SihnTOZe7gS5yJ5tLQx0OYvs8WGUJ1WVOQ026Xd58o5y2SQNhrHoYOHcOLkCVLgnLMo3gkV2BVFdIPnQBB2VXl8XsilQvk3gM/vg1TC800UF53B//3t+SZjJn28kC0iESNKqrgGxZquG1FSMJZzhz9zzYmSrOLFuWgZADRk6/H6QEDC++9Pxz2EKCntcqKkZpLmaDAiLloYodvtLmg017fcs0wEQDhd/C5DaLIlZlFeZUBSfLSghZAgRUaUdHMmkAseBDJJi33DC72jkffQSIx40CueImizOaEVSf+ltRFMLQYxoiRC0kZ0WpwHQXwMFsr8RQvcJXISkzXZvjiDIEoiY7h8I0UAOQ/U3BwhlKAHweXmNjhiHoSySj2SE4SJkhpv/J955s947733mii62epAaAhfJvgGECUZkZfddCd4c8zuzmv14JlytM1MgI7CDEgko681ISaqKTsgyc9lPAhX6s2dnOZ451nRjR8xO2K4Uua3c7GmxqO90TwITz/9NKZPn95E4LdMmuONN83bq0UWg3Dl92Q8CLxMaLsl4kHwer2QiBzn3F7W0rxGQ9zIYTrtNaFaplVaDMqDYHdy1SWFLlobwXgQ7tRqjgwgtOXPsANdLp+XHCtDRkp9ssnoms5SDCAwgCCkUMEABFbN8ZqaY9AvYx4E5kG4UVkMzdqDsPF8AXwyPpjC6/GgW3waItTiQSJBWxl7EAwgMIDAAMKtNxEwgMAAAgMI/5+k5KXNS/Bgr6FcPObh8iK0C41BdmTcrWfR16HHfp8P5wvPIzU7A4Hqm3k8bpSXlyItja+TEOhiAIEBBAYQroNxXudX0gBCfX099uzZg/79+3NVP2lBijT3PxkONUiRHTFwX50m6+CqOTatxdBYnVgMQiNpPLtuPnRaHfeXeocVj+X2RavohEtP+P3Q66sQFhkHpTxwGVCarVaf3IxF1Sl4vF8W7dGA92211TBIw5EaQS+ZHFwDXmzYuBV9+/XlWOiErj2rvoQkZxS8xfuwbMNuDBp/D/q3T8V3M79GpTsMDzxwL07u24FWHbsjIZKX4eUXAwgMIFxPgGA1HkPFybchU5gJ5RCSWj8LVUhKcGZwLZ7yumC0AxG6G1PN1eOyw0vIlBqV6r0Ww7j8HTSAUFdXhw0bNmDs2LFQKBTURYsBBF7CtFTMm1WsiQEEgRiEFzYvxkO9hnLy2VF4Aj1i05DTyIPgc1ow+7tZ6D1yPA7sOoCBuck44kxC3eEVCIuKQaFZh8n5yVh7uBJJMiPSOg5EWqwO+vOnsf9cFRSmEmgjIvDNliJM6p6NmLRspKtqsOV4HQwOGcb2bYlFS1dh2Lhf4+SO5bA73MgZcDfc5w/ADjnKCkuQoLBgg78tHu4cjiNFlfDpi9Cuex98M3sJhowZje4dsuGpPop9laHQ6o9D1ao7Kk8dhqXsFFoOnIBtq5YjPqUNouJkaNcmF5vXr4UuJg59u/fAD999jcjoCBiVLdAhyoyCWh+8+jLk9eiOr2f8iH+88FsUnKtFcoQEG3YfQZ9UM1br22Fg2AmstHdDf9U51IRno0+bwJMyAwgMIFxPgFB67EVIZMVwO6RQhylhM4Qhq9s7XJMeTz327j+L/O6dAL8b+/YcRG6nTlyK1s61G9F22ADwnIte/LRmHQYOH4ZLDApeLFu0HCMnjGv0t8tH4sORAzsQnpSL+qKDiE0Ix+ffLkFcRlvcN2kspM56LJz3PYqrTUjLaY+cBBVCWvRDXqoOW5auQWSmDosWr+deGhGfhfF9M3CkMhSVBes49kRAiZ7d28IV1g6jembh9PZVqNFmQC2ToXOH61thkgGEK7WWZTHwMrnW1RypMQhuj0eQKIlWnpdGfFNWbUJVnQXdBQDCi5sWo388v7M/XleJUa07Njli8HndWLn8B3TtPw575kxHRUhLjJo0Blvmz8OY+x/ANy+/iIjuPdG7a2f4HHpU613o2a0z9mxbj8j4HGSkRqHo8Fb8ZMnC6BQ/ztTa0LNNGqAJxxcfv4VR99yLc6fLMLR/T9Sb7HCfX4dvCtPRWlWM/L4joXSZUbR7IzZoe6E7jiA8riViVNXYu6cQ+wzxeP6JgQ2ToRPLVvyI80X1+O1Tv4Hb5YKvaB0Wn4hEncWE3z8wEj+vXYvsCCeWnYlHpLIEv5p4NxZ8MxfjHxqOd//2LVrlZ2HAwCGoPr0bZocf32yz4ZO/joHfbcfWjetQZAQGp5Rhh3QkBoUewjfFObg/24gl5RH4Tf/WAdcBAhBapsZCRylfTH5sqKtHdGTTUr1LFi9GXl5HZGRmcO+32RzQavn82EAXNVdab0SsCMMXIfghk+MH77+PKfdMuaLcs9fj5Yh5xEiGAqVrNu6r3e6ERiQamzYG8i69wYSY6KYpoY3bcDhcUKuFd7W0+0TOZIxCpW0JaQ0hjBEijKK5KUlfK6tqkRAfJfgtLRY7RxojRkxTcvTPcFrPIDHnZdRVvw9rjQOt+s5reKcf5HvC7+dol5ctXY1RY8dCpVJi/sdfos8TD4IcJspkMi5bQiaVwOP1c/wv5G+kRgIZn9fLE8OQf3/y0jSM+ststIiQwGnWY8O+Yxjctx9WzfoULdskYd7+GPxxXBzenbUdf7qvHzYdOINRQ/tDKpVh2czX8OVWN+bP+Be+eeE1TH3tb9DVHMfTM87i/b+MhvnYj/jueEs8ObkdPn/lZYz4yz+QofPjX396Fr97/UW89873ePXFR7Fo8UZMnDQKJOL+el3EBogrW6EIzJhnNBqxYT3vQZCTQlkUfaPZBG/b4jwHNLuhtUHLYiD3SW6/kL6R3T8Bl2JEbLQx0OaviqpaJIrYBJETTdaEB0GlEiamIymE5D7hOgh00WyXkBjReBBoAcjEtnU6Ddf8X555Bu+8+26TrjRe128AD4IJ3QQAwkubF+PB/CFc57afO4n8uLQmAMHvdWP5krlo33s8ZNX7MHNNIf72xwcw87OPMHjMWHz71Tz0HtQZ9XYVsuO0iEjMREZKHA7t3ACzLBYpITbUG+uww5ODkYkeDiCoTy7D2fB87N66Hn985nEUnSnFkF4t8fZrX6N1qh9nY0YhR3Ia7Tr1QV3ZeWjt5VhkysTQyEqUmmTIiJFDrVRg0R4Pnnu8H9d3v8+LNd9/isr4vhjRJgSr125FrL8EdRGDYLKZ8dS0kSg9uhsffrMIT734KrasXcQBhIXfzOMAwjvPzUZefgpSW3dCxdGtiEzLxtxVp/HOX8fjp00HkdcuFeu3H8LwTmFYuNON9uGlqEwdix6SAux0JGNSj8DHJ8yDcKUJsjRHXia0SUSomuMFiZpr9sJU8zXU4VJ4XU543YBKPRbRaWO5R5wuExat+AmOknNI6tgTRw8cwG+feBxqDiD8G86WveArO4OBY+7C8gVfoG16Boo8cXAbC9Gj50Cs/vEr5HfuioN6OdK0FsQnt8bG71/D6D/PRG5qCPTl5Thw4iwGD+6L5TM/4QDCD4eT8PyjPfDpS/9E34em4eSB4xjcvzdU2hCsnvUGpC0GA24JitdvwANvv4jIugL87osz+Pj/RsNwcC5mH2+FP/6qEz7754sY/bdXkaoGKk9uwRfztmDYPQ+iR+skLJ43F/0nT0Hkdcy4IgChpKQMp08XgGcYbHpZrVYcPnwY3bt358BUIAZBpVKJfv36cYsuO2Lg5ceOGHg5NGZRpXoQ/EQbBa5rwaRYoRcGCMSDcH8XfpHdef40eidmNg1S9PtRWVYEeVgCPFYDjhScxZAB/THz04/RbcgwyBShyIoPQXGFHiq5FFExCRwDlMNqQnl1LcisFR4ehnppKOJVfljdXijtBpSbvSAoqnW7bDgsdsRGh+LksVOQSH2QhqcjWmlHvdUBr0+CpFgdThbr0SItEXqDngsYjIwIR5XRj5aZl9iqqspKoQiNRIgSOF90Hn5SRCYsCV6/D1mp8fDUFuKdpWfwtweHoqSsHClJSSgvKUNiWjxOHy9FQpwWVXVmnD++BxE5fXBo4QyM+7/nYS49B8gUUGp1SIoLx9mCM3D7pcho2RKHdmxCQlY7ZCTFBvyCDCAwgCBk21cDEEyV21BX/hlUYUpI/J24Hb4mLA+hMfmQSPndEwcQli5B6Tkn/vLMNCxZvAojRo9u8CB8hQG/+w3OrF6HsLxcbF40A9rwJEz91f04sG8noqMSsHg+AQh9oOvQC+r6Ytgcfuxc8DZGPjsbLcKB6tJyHC04i4GD+2JZE4DQDW+99E9MeeQBHDh4BiOH9oNcocTSGa8iZfRzKN/yI3ZsPIDnPns7KIDgdljww9IlGDpqMqJ1Siz/dg663H8PEq8zQKitNcJUb+Q8MJdfJEhx586dGDRoEBekePmulXhk1q5diyeeeIIDEAwgMIDQWIduGYDw8talGJ3bg3MrHywtxKDkHLSICLTY1WP639/HlL88i+QoDVYvWYZ+Y8ZCK0w3LTQv3pS/+zxOLFowB10GjkNGQuDS1DVFR/HuB58iK38cHpw0DLCVYOuBSgzq1z1gnz1OB3bv2oOOPftAqwjs7mQAgQGEaw0QrHVHYSj9FBEp4agrqkZs5l+hjbjyTN7lNuPnTXvgKTsMd1InlJ0+gccf+Q1Hlbvqu49xWpqDCF8tRowag59XzUdeWgJ+LtdBajiEPgPHYt/mJejYrgu0LTtBaSmHw+lHxea5iOj/BLq2iofVUImdB05iwKD+2LxkDjJaxGHJPjU6xZahUtMaI9tFYvuh0+jZrQsHELau/AopQ36PDNcJPPKHmfjvgrcQXn8Or84vxouPDIDxxEosPZuBX49pi7kff4D+j/4RiSqyx3Bg6+6d6NilL8KVXixYtAwTJ0zkjkSu13W1MQgejwezZ8/GtGnTGEBo9JGYB+EW8yDsqyxGscnAFahQSGUYnNEGIYprlS1wvcz3xr2XO5tt4IkI1KrP64VU5D4DCAwgXEuA4PXYcP7w01CGOLmYAFO5BGkd/wpteKCgPT/n+ibVHq1WG+RyJdRq3rZdThf88MLnl3J/czmd8NuN+Obbb+ELS8PEMcMRrlNzRW0kMnJWS2IZSHiCD063Hxq1En6vC1vXbUBK1wFI0fExClabHTKZgo+TIef4Nhs8Ph9kcgUUMglkCjVkUj/sVjvUIVpI/F7YnT5o1ArufS4v4fqXwelwQKFSg8cA/oYKewoY9eex/3gZBvXr2VAw5/rMBQwgXClXFqTIy+SGBylezyOGshoTSqrqkN+eD3ILdDV2oF0/TH59DLm5v3XnsWK0y0xAaBBBiqwWwwU3pHjBF/LUnVuLwYdjP01CWHx3QKqEw1SMFvlvQyq7elDv9/vgcDggJcdpSoVIrbpLVkd29zaPHKGaG1NB0uN2wuOXQa28vu0xgMAAwh1BlEQU/YcNB9GvYzZCtTcmV7m5L9o3pn8S1BgtKCw3oFeHLCiDyNtmAIEBhMa6KRSkSAJyyfZZIpHC57VDKiNZLQzaX0u7pgEEErjodJJsHD4S/XLyHnbEEPhrsCMGXi7NJgaBdKawtAZen59zEQa6bHYHtBrh1DmP18u5GoUucp/UcBAqf+lwurgdiVBaEu39pF2HywW1UhjgGM0WRIQGJisivydHKCTlS2gctPtenw/E6FUifXB7iDu3YWdD5muJBJFhWsSEhwQ1dzGAwABCMAAhKGViD12VBGgA4fKXM4AQnO0ygPALAEK1wSiYxVBnNCMyIlRQ2Z0ON1Rq4ZxP8kOS16kUcck1zskM1JDb7eXygQUBgsfH5c4KpSWT3FiSky7ksuHeL5eJboJoua+GWhOiLyuV3Li/JBCZ5PDLBcbB3SdAiPQjwEXABZGjRiMMUmhyos1YZMcYFtq0DsaqlSvQvl0HpKbzxbZo35uWA2w0WRARLgykfD4/F7D6+X8+wV0TJiI5OblJt31eAqVInrzwjrW+3oqwMGFQ5HJ6oFQJu4hpYyAdMtVbES7WBkXn3S4PFCI2QUCtTCoT1HsP0XmpBBKBQDmSU05iV8RS9Wvr6hF1Ge9FY2FzdquQC9oNTZ/Y/auTALF5btMThHPm8jmWzCUL58/DpClTubmRpq+cbVPy92l2Q2uD2C65pAK2e2G8QvM0mYPJ/CjGgUIbA+0+zSZI/2m2S5uHOX4LuRxyAWZgmu163F7I5OK2baitR3RUU06bxtrosLugblhLXnrhebzyr9eaKKvD4Ya6YV2/rjwIpFUad3Wt0YwoARBCVIp8VLUI8QSNWMJktkKn1QgScJD3EwAj5IEgY2jskglk9qUVeqQkXkp5vPwZsuiRgC0SwR3oIgsjUQwhIEW8A+SjhTaQWwR6B40DnDZdMQ8CLyEaJz155k6JQSDlfcWIkmg6xe7/MglwHgSnmwvGFJuXLrydeRCCs13mQeDl1KyOGBhAIAHVDCAQxaQxc5JdhM/vx/vT38PUqVOvYFKksbGRNmoMJsSKsBwyoiR+krgaHoRftuyxXwUrAXbEcKWkWBYDL5PbKouBeRD4j8oAAi8HBhB4OdBAM9npEFeqkMeJeKPkV0m1fDUAgYC4c0Y9PCRgEUC4SoMEnTD1dLALI3vu0nxx4ViTeRB4mTCAwADCFfMDO2LgRcKOGHg5MA8CL4ebDRDKLUZ8X7APqRHRXH9Ka2vwTDe+6Bq7rl4CzINwpQwZQGAAgQEEgcA1BhAYQGhsHDcbIBTUVmFfXTn6tWjHdWvWrvV4rseIq18ZKW+Y8/GHGPrYHxDTXDKmbaVYvseEMf15OQS6fC4rVm/ei0H9ekNNgpQvjxz1+7BqxSr0HjkSYTK+/DsDCAwg3BE8COQz09ypLEgRYEGK/ITAYhB4OTT3I4bD1aX47NBmJIfx1SBLamvw2chpTWZ1n8+OgkMnoXf40KNHF3jM1di19yhadeqBUKcBFVYn6i0uJIb6cd7gRqdOeVB4TNhz6Aza5eZeJPey11Vg/4litM/riFlvvIwO4ycjJTEdWYkROHfqGCptSuTnZaGwuAzGShNad0jDwf1HkN62M1JjQ1F6ch+qnFqkR6kw/Z0PMPlPz6F1JC6+01VxFpUeBTLT0qCU+kDmo7i4OJQWFSEiUoO9B46jTcfuCPXU4EytC36bA63yOsBmNEDpteFopR8tYpSoqyyCRRGLju2yYSg6imKDHdFpLaGxleFMpQs9O6bjm09mIr3PYAzp0R4bVq6ATxaCuOREZCWG4K1ZO/Dyn+7hkhYYQGAAgQGEBh1gAIEBhAvTAQMItwZAIB6EbRWF6JXGUyzP3LsBbw6c1GRWdzlL8fUnq9AmR44KVTckymsQGhmBMydOIFPrwxFNW4RUH4Q2pTVUbj2iY1Lx07KfMWhwJxTZIzF5aBf4bdX4cOZP6NkxCZXuEBSvnYk2dz2MPbsP4/H7RmL/3kNQWorgSuiNfXv3YmSfHrDZ9ZAotDh9eB+6dGyHXVVAIiyITEjAkq/+i2nPPoMVK7ahd24qTPJI6A4tRUWbcRjTsx1kHgvWbD6AoQPa4oc566CJi0ZGYjRKK2qQpa7A6ros5KvLUZY2FCl1+5EQGYJvdznRLdKIuLRUVJacRkZWFhb+VIChncJxSp6NLv4DcGeOQ+dUDY4fPAm7SoFu7XPww9zv4JMqUG6Q4onfTsX0Z5/Fo2++g2g5AwiBPDHsiIGXyg0PUjxxuliQB4G2+3d7GjgERFyDZNIXS5US5Ukg/ACES73B9RbQhUfyhTmipMCdIHmpJOBL6D7XP1KZTSTf2E045RXCufO0yHiSvC82DsKDQNjRhMZJPAw+QrQkwgcRzDhEPlPAPOj1P69Fy9ZtkJKSyv2U9r1JjIBYnjKNT8JPeBAAfDvzS4wYOQYJiYlNunzhvhC65gyIks9N6yPtPmmDllJKeAqE8pwveErEdJr0QSqRCuaME30gwWtCOk10RcwmOM+e3SXKq0F4GLLSEwPqJAEIO6uL0SejNfd9vtj5E94ccPcVAGHl4hMY0U2J/+4IwaBsI7769kcodOEY16UVrB3vQVjhDkR36gBfXQlKjp7Aix/MQsc2KYjIHoQ3/+9XsJbsxn92+fHMhC6wOd2Y+carmPjCK5jx2ad45jf3Y8GsGdi8bSsGTPgL6qxm/G7aCJw6vB1fzZyPepsdA/oNRc7IiWgf4oFPIsV/X34Rox8Yhz///WMkRKqR0WM0+joOIGLSi+iQQM4tfFi9ZgWibGdhankvYmv348vvfkRMRi7G5ylwOnkyJrVy45m/z0a/7qkY0r8t3vixHP1Sfcjv0wclx7aipKwSBbGD8OtMA5YWK9HOtg2y3PvQOUWHUwePwiSVoluHNrA77FCpNNj8wydI6P8I1r73D0x6+S0kqXiAoDfUo9ZYz5Gs0S4PR8LGH0/w+uXF8qWLMfauCZDKpFR9Jb+h6T3tPs0maLbL6TThdxPh9iD1NsRsn9ZH2vxFs4lgbJe23nG2LTIOmu0GM8/T1qPG69m/3/wXnv3bC01UrDGXA+NBYDwInHIwHgTeRhgPAi8HIaplco8AhI3nC9A9KYt7ds7RnXh70JUehAsA4T+bpcjQFsLgDoGyvhzpkTo4Ot/bBCCUl9SjpqwUXqUMnXoNQpuMePgctZi78CeQ44rU9j1wdNGsiwDh8ckjsWDeCmSnqlDqbQmr04Wn7huMn1cuRGGtDEr9KXQcfBeOnjgGn0eBvkMGYff8T5GQPxxVRSVwe1zo3ncQqpZ+3AggAPqC3fjHl7vx9svT8MN3C+BWqKFSyNEmog6FqVMwOTcaa754HobsSfhVrhzPz2sKEOyKWOzYtQfhKidsGQMwIq4MVbJc5OemXgQIXdu3xP5d63G4oAIh2hAMHTsaH/z9Tfz1vZehkTAPQiBAxDwIvFRuuAfhehZr4nYqDhdH+CF0sSMGdsRwaefDeBB4kNK80xwJQNhdU4I+WW24T/f5ttV44zIPAvw+OAkbo1wCh0cCmd8NewM7o1wqgV+ugsTrgZSwh/p98PkAqcTHATS1VgtlA6uox+XgvAcajRakxLlKGwKHww6NSgWbzQqplK/4SLxwZJ5xuxywO91QyKRQqrVw2S3wQgatVgOP08659eXwwuZwQ6PVAm4HJKoQXCS283thsbmhC1HDabfB4SYEZgoopH54pSq4zHq8+69/48nX3kS80g+r0wfi2FMoFPB63PDZ9fjk6/VokSCBMrsb8lN0OHLyPHr3y4ff6wHZJxMvm9ftgtXugFKtgfnMdqw2ZGBa33ROntciBuGDDz7Atm3bOE9TExp2gYmY83AST+ovvE9rg4yJXEJpmyR1lmeID+zKJf2TQCLqQbjaMbjcbigV4szAxNNLPACBLjJG8p/QffIbjjFSKhGk/qfJgXaftEEbR2M5JSUl4aOPPmoyHIvVDl0IX+eDeRCYB4FTBOZB4G2EeRB4OYh5EM7X12Hl+eNoHcdTYe8uPIn/y7/+WQyCq9cNvGG31sPqVSAmjJ9AA12WuhqYXUBcbDQIs/C54vMc6VfgWiwenDldiszsdMgaFserBQikT263mztqIFdNrQmxIlTwweg9zW1Na4Mcg5CqNEL1aIjrnYADoaM3AprJMS+h/xa6CK2+VqRyLY1JsbzKgKR4PnVX6KIdk9KOWsjiq1IpLtXNuawhcuROSgsIASUOdIvcJ68rq9QjOUGY2bcxk6Kco31uKlMGEBp9FEa1zAuDAQReDgwg8HIQAwhevw8nDZVwNyxA8SFhSGRESdcMplwLgNC4M9UGI+KiI0T7R9N7GkCgtUHjMCHxAaSgnhBAYEcM/Oe71kcMAQEu8yBcEgsDCAwgNDYS2kRJnr1TajGEaNWsFsM1W/aDfxEDCFfKigEEBhCu0ArGpMiLhBEl8XKg7ULIM6wWA19BlZxzi0V8B0O1TH4fDNVv8EsfezJYCZCofhIHEYz8aXFetN19MJ4z5kHgvxxN1rQjBrPVDjWJaRE4KqHZLvMgNLIgBhAYQGg8oTKAwEvjRjEpkuA8UlaaXTdWAmTeI6lopJomAwi87JkH4SZ5EHwEqgpcFdW1SIzj2dICXRarg0O5YhcNcYlmMfj5M5erK/dsg07EVcofMSgEc8rJ2G5EuWdyBqcSpFr2ggTH0Mo9k+CXXzqd62vrEXNZDfFFixcjLy8PWZmZF42UyFLoornnq/RGxMcIn4WSQCbiXn1/+nTcM/UepKXy/AsXrmYDEChnujSdp90PJouBnNUKRZ3TdiFEnrSALBKDQCKZWbnnGwsOSGsXjhiUKoVgtHvjXtH0ieZVI++i2S7Ng0Brg2a7ZP4jYKgxn0PjMRKAoJDLBefIYMZADVKsNCApQTxIkSbr5uBBKKvQIzkxuCBF2rou8Xq9ggChsroOCXGRwgDB5uAW36sDCBZERegCviIoDwJX2U7YnWoiE93VAgSrHaENaR+BOkqLGiUZPmTXJwQASOoKIacQBQhOl2gfiGJeFUCoq0dMZFiT4S1uAAiZ1wgg0M7uLwCED96fjin3BAIIJBIaoiREtGhq2kRHmyhJ+7TJkDaJ0O7zAEF4MiS6JJPJBHf3wQGEWiTFC4N/AhBCdVoGEG48PuAAAtERpVJ+GwEEcdu9MQDBiRCRLAcaaCaqIGa7waxX5IhBpVRymQiBLpKloBA5HuTuK4heCCtmWaUBySJAh7bhbbzxZ2mOLM2R0zSWxcAbXDAAgQZ0aACAdj8YD8LNLPdc73Lg2Z/nw+l1czLrkpiJ33cddBOW0tuzSRakeOV3ZUcMvExYDEIj3QgGkdF2SyazFTqtsKuUZTHwAmcAgQGExtMyjUlxX205+mfzVQy/3bkesCuiGAAAIABJREFUz13Gg+B0mbBo5SZMHX9XYO+g14PSinLEJ6RAeZGl6Nov+MeWvony1k9iaMvwX/TyqlNHIE1qjVidOIFO8C93YsEPP2PS3aMFjwMZQGAA4UYVawqkt4wHoZFUGEBgAKGxkTAPAi8NMYBwtKYMH+1fj8Qw/vixxmzCJ8PuazLXXAAIWWoPynyh0Ki1GNorB3PmrIDdo8SESYPx/aw5GDnlEeQkhDb81onPPnwf4SE6xHS5G6m+szhX70V9eSm6tEvFzA0n0S5WAatViugoCVLb9UWM+Sg2nrEjOjETYwd25d6zZcl3qJZFIiw8Fkm167DgfBwi/VI8/PgU7NqwAW5zJZRZA+A4sw7nHKHomJ0Op8OKoqIKTJ06Gl9/vQDpGalo2TIb22d9jJi7/oSUur04bglBXFwC+qa68fqcg3jskXuRGKrAnoNHkNepGzatWYEwnRwmWQRcJiMGdEzGK5+twbhBrVGl6YCu8W64JH6s37Ib3VrEoqDcBrm9Dj1GTkVGXMhF+TGAwAACAwgNOsColhnV8oXpgFVzvODFuAWolvUl6JvJUy1/tm0N3hwwMQBA2Ij8vA6IjdRh5br9GNs/Ax/O3oEJI3shJjkFm9atQr/BdyFKd4GK3Yav5yzDg0Pb4MUF1fjjxA7QhITi8LYFsDgkOB0zFH0kp1EfmYFMnRNHCwrx8/JVeP71V/DDgqV45IH7AVslXvp0PV758xRU6U3Q7/gCpa0eg2XTPLSd+ggi7QZEhDsx84utkEd48dCvp8Gkr4FMqcWuuf+BOyYD0tZDMDBdAbtXgkOz34Vi6INYO/sH/PXZB7B6zXYMb+3DspIcTB3RBvB7sX7tz2iXpcHyfT6M7J2DiOgIbN28EjlxYVh0NAp//lVLPPfSZxg/rCPC09vhi2++xrB++WjfLg+OimMo92ehbyeeZplcDCAwgMAAAgMIF62AJJKQKF8SlBToYjwIvFRokdDcbtZgQmy0sDv5WgQp3ukxCKQWw6bzp9A9uaFY05HteGvQ5AAA4Wfojx1Fyx49ceRYBZ68rw827i1Gwe5tGP27Z3B0/WJ0HzgOKdEXds82zJy3Eg8OboUX5pejV1wtFFGJOHNwM1q0yMCZ2OHoIzkDW0w6UtQOHDlZiNM71qBF7wnwuDwYN3IA4DLhrfe+weT77obJaIaycDHK2zyJ+o1zkDl6Mo6s+gFJCSrsK5QjJtqPR371K/y8/Ec4ZToc3bgcvUdPwIFKBUZ3SYBMG4HSNV/A1vkeHP3xG3QYMgZ+jw+94muwsrQ1Jg/jy12XHNmF/8xfgYf/9Cy2z5+FjLxOOHxgN0b3bI2lJ+Lwx/s6Yc+Cj7GuOhS/f+wevPTavzFsQE/kts2FveI4ynyZDCAwJkVOl2hH5iwGodE0w2IQeGEwgMAAQuPV90bxIAgxKRKAsMdQin5Zbblu/WfLyiuKNfl8Lo4TXumxodxghiokCq0y43Hm1Gm4JGq0ad0CVSVnYdWfxgczVnDv6TXqSfTJi0B6XCiOlTiRFOpGYWkNQkO1CNMoYdUkIAZWeFVaaGRekAylCI0cp8+dR1h0EtKT47j3mPTlKC6rQUxSKnSeGth1WfDoSxCalIaaogI4pUpIIYdKJUNmWhpqq8tRXF4DnUqGuPRs1JYVwuKSIjMrE1KHHuVGH+LCVSgqKUdEXAqSdG5U2nRIieePRvweOw6fKEFuhxzoy4pQXGlCaHgYkqO1qDSrkZ0WAUfhOiw8HYf7h7fF4eOnEB8bjfCwcHgd9bD7QxATob34iZkHgXkQmo0HweVyC6Y5VtXUIT5WOM0xmPNah9MFtUq4mmOdyYLIcOE0R5fLDZVSOECInyyF0xzrLTZwE51ABS4ekYnzIND4HmjpMcGkOXIeBAF2LZICROQolmrpaJDTL+VBMNSZER154SyYN9AlS5YgNzcXF9Icad+btjuvNpgQJ7K7v3DE8NGH72Py5ClcgZvGF63gC3k2EJ9D43fYHC5oRaqL0sbAeSkoxW9oWQq0XGmr3cnptFDaq8vt5dIPhUiMOJsgqVIClfHIGOgcJ3aEhYYETHMkAGFz6Wn0TM3hRDvr4Ba8NbBpuecrp3iBv/j9uEDFQqrcBUMMFPS7m8mD5vKT+M+i3fjd49OgldMtlAAEooe0b3hheDR9o9kEeQ9N72l2Q2uDt10I8hzQ0hyDKtZkd3LkUkIXsasQkfs0myDvFbPdYDa0JBuDrGcklTHQRbNdPs1R3LZp6xFtPSN9vEBfIHE4XYIAgeZKpVXPogmU3DeaLIgQAAggRElucYBAGMdITrgQ4jJbbNBqhDnl+epZclGiJKvVgRARQqiKqlokiuSUE4BA+il0hOD3+bnCN0IAgYAHophipFQk2JLwIPzSq7bOjKjLAMLSBoCQ0cCDQPvetEmG5v4nAIFMjh99+AEmTZ58BUDg74vzIBjq6hF9GZ9DY5nQJlO73QmNyCQSDAi52opv3OIgkwkfOTUABCGdp9kEGQON44TofHhYYIBQaNLj2+M70aqhmuOhkkK8eXm551+qiOx3nA0QHSAgMBjARNM3Q209oi8jQbtczDTbtdtd0GiEN3q0Nmi2S6vmSOYeuUImWs2RZru0MVZW1yJBhBgwmPWMNg8Tu+LKhwvwIBCAoJDJuJLQAQEEpdojB/4p6xENIDQmlGI8CIwHgdNDlubImyPNS0KeoQFnKghxuKAR8WI0dx4EsoDV2CwgVR3JFapUQ6cU3rmxNf9/kwA7YrhSXowHgZcJi0FopBvBuGxoQR2MByG4yYkBBAYQGmuKWJpjcBrFnvqlEmAAgQGEZhOD4CfaKHDRzmRorgryWtpuiqU5sjTHC+rH0hwvgJTmneb4Sxc+9rvgJMAAAgMIDCA06AADCAwgMIDQdEJs7kcMwS1zlz/lQ01NHWJjhYvh1OuroYmKg0L6y1q4XX7FAAIDCAwgMIBw0QqaIw+C2+3GjBkzMHbsWCQlJXF9pQVr0qql0bJimAfh9vUgVJ05is3n7BjTMxvr16xCi76T0TpOgR1rV8Cli0JsXDJUdSdRqUhH746tbpe1/heNgwEEBhAYQGAAodkChMOHD+Pdd9/F1KlTMXz4cEgbUkQZQOA/2Z0epBjMquf3+fDTom9Q4gtDWkQ23I4i9Bs6Ak5TDfYsmQ/JgCcxvKUG//74dfz+8Wchl0ohl0qwZN58DJk0FSGBOcOCafqWf4YBBAYQGEBgAKFZAYQzZ4tQXnYex48fR2RkJEaNGoXQ0Ka8CAwgMIAQ7OrrrD2B2StOY2wnDT7f6kbLeCnuGj0EaqUcx5bORGnrezC8pRxzvvwc6sg4mHwheHDyKPy8bC7aDbibq3Fwp14MIDCA0GwAgsViEwxSrKmtR6xI/qzN7oJWJDeWfGZC4KMWIToibGjhoZdYxBqrBukYyQtVCRAIkWddHi9HviFECmO22aFVE6KkwHmlTsJPQHgQRGYjGsFGpd6IhJgIwTeQcXA8CALj8PkJ1bJPsEY44Ugg2RpiJB+EQIPwLNBpWK7s5tx582A0mpCb2wGtWrVCVGRUQF4IGlkK7b7BaEZ0RFPQ0bg3Xh/Pc/Dxxx/i7rsnITUlpUlnaWQr5OFakwVRQrwaJGjW6YZGhC+CFlRL2qCNg0aERLMJIkei02LEWYT4S2gSodkE5wWhkFbZHE5ERYQFJEoKZuF2Gg5j0WYjpvTU4vUlNWgT68WY0cM5ro6LACHTg5+2nMag/HTMWb4L900ZhXWL56DDkMmI1925LgQCEEgAOOG5CsaeafpWazIjKlzY7sj3pOm93emCRoTwjtYGzXbJfTJeIUI7oo9yuRxKAYKhYMZAm5+qDUbERQvP47T1jFuvXB5BgjPye7KWELsWJkryQi4XXs84ngS5OG9Pld6IeJH1iJbK3Xi9YzwIdyAPApmAzGYzduzYgblz5+Kpp55CanoW4mOjROd+5kFgHoRgwAF5xutxYcb7r6LM7IEqaxS6JJjQpc9gRIdocGrNPJTnjMOALBUOrV+Ir5ftxNipD2Nwt5ZYtHA5Rk2aANUdHKjIPAjMg9BsPAgszdHN77xFaGnNFjtCdRrBubG0Qo+UxBhhD4Lfz3tCBDwpNzJI8dy5c9i7dy+sViuysrKQn58PpVIZkCjp8gExgMAAQrAAwed14tD+/bDUViOsdX9kqWqx5rABE4Z1Q2CSWeDMnjWwROSiY05isM3cls8xgMAAAgMIDTrA0hxvTJqjyWTCe++9h5iYGIwZM4bLTFCpLrHfBSJKYgAh8PrDghSDW5c9bhe8fkkDMPbDSmjPdSGCbnObxcyVdxbB6sE1fIs/xQACAwgMIDCAcNEKrpcHweVyoaioCAUFBVzw4b333ou0tLSA0ycDCLxYaOdz3Pm93og4kTM+6nnuLU61fIuvv82++wwgMIDAAAIDCNcVIBw6dAjbt29HXFwc2rRpg5ycHCgUwpHhDCAwgNB4WmZUyzcPRzCAwAACAwgMIFxzgEDKA5eVleHVV19F586dcd9990GnC1xK+3ITZACBAYTLAYLD6QyqmuDNW0pv35ZJpDqpphlMNUeaxyqY6Hya54xWCZHWBqnWSC5SwjrQRco9k0w0UsEy0MWKNfFSYcWaGmkHK9bEC8Pt8cDhcAsGStrtduzevRcVFWVwOp0cuVFCQsL/NHsygMAAAvMg/E8mc90eZh4E5kFoNh4Ep8slyINQVWNEfKxwXqjV6kRIiHiZV7KwqdXCru06owWREYF3uSQnnssrVQnnRLtcDXmjAjwHNFep09nAHyCScGyxOKDTqQUnhPLKWiQlCKcIcuPgshgCj4Mag+D2cshRF9K0D4SaeOXKlThy+DDye/ZChw7tER0ddZH58H+ZwQx1ZkRHiudKU3cZNie0WmF9qNGbEBsTLtitC1TLH33wASZPmYzU1NQmzxKuCH4XIpwDp6+tR8xVcHfYbC5otcJ170n7ekM9YqLDBMdhd7ihEdF5mk0QOZM8aZJdE3C35fZy+eJSmXDNeLJTE5pkyDsrq+qQEB8pOAaLxY7wMN0v5kH4X3SPPdtUAgQgkB07+YbBBGzS9I2mr6R1mt7TOG9obdBsl3gYiLdEyINAs4lgxkCbvyqqapEYL57qLWq7/gbeHxGeFcJvQbLZFIrAnhRadWKO74bw9oisV7T1iLaeWaxO6BrWdcaDcIvxIJDJg2QklJSUYN68eejduzeGDBkCrw9QiygmbRJmHgTmQQjWg+Dx+lFb7wIh+CKXRilDWIgiqMWMpofsPsA8CMyD0Gw8CIwH4dbhQfD73FizZg1IdkJERAQHDsj/yUVjU6NNvAwgMIAQDEAw2zzYcKgGVWY358kh3i+yF2qTHIJurSKv9Fo4anG4xIXcnEtHXm6LHhUODdJiQgD4cP58OdLSmrJm0vT1dr7PAAIDCAwgNOgA40Gg8yCQGINvvpmFs2dP49FHH0VGRgZHbtT4YgCBl0aNwYTYaOFjDFqwFc0NSdq4k9McF20rh18lR0ay7mIAndvjw84D1ZjYIwEpcZcRiukP4Y1lJjz3UL+L6uo0laPEForsRHKk5UbBqRK0apnVRJ/XLlyAnuMnI/QOZFxmAIEBBAYQGEC4aAWBYhDIJEFYD8+cOYNdu3ajT5++6N+/r2B8AQMIDCBcUCjaOSZ5rrzSgKSEaMGNeKDYHZvDi3//cAZjB6XCZ7VgzuIiZHRMQZ/2kTBZ3Nh/oAp/npzDvdPnsWP1oh/g9jlwxJiCLmkSWKrOwxeVigGtNdhcm4nJ+YSTw4nZP6xCllYNq9qN0lIHerZMwr/efg+/+fsr0JhLcfxsOboOGIYkaS2WbNgLmdmNAQ9NQ9medThy3oD+/Qfh5NatkChdGDDhAUSIh0U1e+cDAwgMIDCAwACCIEAoLCzkaiS0aNGC4zDIzGoBQCpK98wAAgMI1xsgHCuqx5YCE3rkxcDv9WDZ0gKEZCZicEc+sGvWojN478kO3L+dVQewcIcZ4/JkeH+NEemRHowdNRS71i9AfIwWm825+MOIVqRMEP796bdoFxqKzLHjUXdoB+ITc7B85qe469F78MKrM9CpZRz8CR2QWLkLnR54DrtnfYZW4ydg1YxPEJuQhHppBKLdwP1PToNOo7nlYyEYQGAAgQEEBhCaAASHwwmfz4MZM2ZwqYqPPfYYwsN5VzktzZE8wwACAwjXGyCU1dgxZ2s5BvdMIi4CLPnxODwx0Zg4IJkLrFu4vBBvPNqe64bLVIAf1xRhbPdQvL+6DtkJCowbNQg71i1ARKgcWyyXA4QodL5/Ekp3bkNUTBpWzvoMYx6eim/XluOPk/MhV2uw+atXETfmGRxd8AVaTbwPtaePoGd+T5DY3Lkzl+Lhp6Y1e+9AMB1kAIEBBAYQGEDgJOD1erFr1y6cO1cEm82K/v37c54DmexSGgwDCLyy0MhWyDMsBoFPDaalOf6SIwYi348Wn0W7tjEIk7uxbX8t/DIZenRLROE5I1JClejfkS9a5vf5sHvzWtS5JQjVpSEkVIr2bXJQdPoQNCopCp2J6Ns6jotB2LBtLxLUWqR0yYOx+By02khUn9sPR3gWwpwVOHCmEh269ESMtxhz1xxAweFz+Nt7/4Lh+G4UnKtGXo981J0vR/feXYJZf5v9MwwgMIDQbACCsd4iyINgqK1HtEhOud3ugkYjnjPuImmEIul35KwzLFQb2Ggb+AOE8sG53bXbC7lMCokADwKpQEj6KJUGzp13k8mUkldqo+T304LWSDaYx+OBQtE04ur4sWP44YcF6NqtBzp0yEViYkITYHBBKGRhJDwKWo3w4SpZFEh+bFAF5ANI21Rv5ZjbxC7a93Y4XFCrhfVBLCCVtOvz+kBk9eknH2Hi3XcjOaVpZDvhSSCXUK40uWc0WRARLswe6XS4oRLlKBAfA2mjzmhGZIQwZ4TT6YZKROdpNkGY8YhOX64vjfWB6LPQJEKzCfIevcGEGJFgTvItY6LCr5B1SbUN320oRZfcWMRE8rwce4/qQSx4cv9kKBXXr06zy6rH/oMnoAxPRMf22bh+Ld1cDMGVY7fYuTTSYHgQaPpWZ7IgUsQmyGhptku7T2uDZrtewnEiEbZtu8MJuUwmaBNBjcHuglpkvaLZBGmDZrvcPCzAX0J+T4KkyTwtyChJWc/cbgL+xXkQavRGxIrUiqGtZ3a7E5qGtYbxINxgHgSLxcIVUCIER9HR0Zg8eTJ0ulBudyxIjENhUuSMw+lmPAjMg8CtbNfTg0DeT1Idf95bhYIyC9QKGfrlRiO3RQTkAsRNN3e5vfVaZx4E5kFoNh4ExoNwY3gQ6upM2LBhHcxmMxITE9GlSxeu9DK3c/b5GUDgjlt83K7p/envYerUqQGYFMX53Iks2RHD9QcIt96Se2v1mAEEBhAYQGjQgTuBB2HLli2YNWsWHnnkEXTt2vWK4w4GEHhlYACBl4PV5uBckISSNdBFjpvIEYTQsdn19iDcWsvtrddbBhAYQGAA4TYHCKSq4rFjx1BQUIDMzCyOxyAiIjB/PwMIDCA0nhKbC0AgfSI1H9h1YyXgh5/LCtGFkJRNEdL9hm6xao4XgLUTISK1YIhdhWiFa+qUVRqQLMINQlqhyZp21Gu22qHmajEEZgCjgXtWzbGRLd6K1RxJjMF3330HlUqFTp06ISsriyu5zBdrCrwjZACBAYTmCBBIUKxYQOiNXTbvnNZIoK7D6YJGrWQAoeGzs3LPvCAYQLiFAUJdXR2mTZvG8ReQSoSN0T9xnwtNtmS3QP4TchkTAOH1eUFqxAtdYu8PZmolE5JaJZ6RQgIphaJvSRu0+yQSWaMWzsTg5QDU1FTj7bffvhijcaH/LM2RlwQ7YghGo2/dZ9gRAztiYEcMt+ERAzHs2traKxZ64gkh6ZRCWQrkd26SxSDgdiILo4OUexZxjxFkKeShCGaqpKUgknfQ6hjQ7tMCCL0+H/w+P9RqFUJDr0wjZACheQAEj9+H3WXn4PK6uQ7Fh4SjTUxiMGrGnglCAgwgMIDAAMJtCBCEbJ8YPDtiAKpq6hAfGynqBSFZDAp54FrpDCA0D4BQaNRjXflpdE7hCyz9fOIg/tpjeBBL3533iM/tgMFk5VKaA1G1OGx2WB1OREfxVVnJxQACAwjNBiAYTWZhoqQ6M6IjhQlhaAEb5DM7XeTsXdg1Xm+xIUwXmCiJ23m7GwiABOYWsvMmrnupQDAPCUwhbm0hgbvcXigUMlF+IZvdBa0IwQZtZ8yPg3gIAi98HJGSlxwhCCyMXh9cLrc4URJFTrSpOSiiJAd/Lip02Z1uaEQIguqMFkRGCJMYeX38UQuJ0A90EQ8D/DSiJCsiwoUJn2hBRLT7pF80UhiaztPuc0RJcpmgPtB0nnafjEFfW48YERI0h8PNESkFOhY7YajEyuLjyEvO4D7TplNH8GrfcTQVE7/vNGDm4v1o1UKH6KgEtMzKvOx5I/7+hy/x+od/+UXt+OxGnNV7kZMqXKDqf33xsa0roe4wEi3ChQMJzx3eBr0vAcmew/h6YwmS0rMxbfwgbFi5FKUmLwYMHYaCfTvRffAIRGl4+79ElOQLiveMpk9Gk7hNkDZptkuzC1obNKIkj9fHHcnKBAjvaDYRzBho6xXNJoJZz8hGUMgTTH7PESUpFYJzHG+7soBgkvyeW6/kMlECLdp6RFvPbA4XtA3zPCNKusFESYEmIRakyEvlQpoj8yA07zRHAhAWFx5CuwRSjRHYUHAY04fc00S1fV4PNv28EtU1FuQPGo5jOzdBIvehwuhBlNoDeXJXdE2WYn/BeXjsVvQb1AsrVuxDVk74RYBgryvF0nUHEKaTIbdLe7zx2D/Q/94RiG/THXmJcmzfvhfldRKMH94Fq9euQ0KrLgixV6KysgIZPcYg3FqIQyW1CFHIEekqxxfbrHj96fHYsH4btKFa5HZqj+WffYPWw4ejd/euMNeVorzGjmRZOQ6Z4+E0FMNjNSC721AcXjcX8ugsKNWhGDG4L07s2wGzvgpRHYehcPsK+GSAKyQTfVuosXDDUWhDVRgyYADWzf8aYx99GkdmvIg9io4Y2r8XsqJt+GnTOQzsFIbvN9ZjfGcFllSk4YlhpCgb8yAEmiNZkCIvFRak2Eg7bsUshkDKzY4YeKmwIwZeDrSdTHNJcyQpYYE8CAW1VVh37ji6JvAehIUn9+DtwVOaqL6zci/mbDVjShc53l1mQNecMAwdPhDff/Y5Jj0+Gc/+7r946eWHEKoLw9k9a+EMTcf8+VswYVK3iwCB7LKTu/VHnNwLl7cWbz8/D6+/PhX/WXoevxnXGjaEYut//4r4IU/CUO/E6P55qKqsQmyICZ/O3oOo6DDcf+94VJWXQlp3Gh9s9mFyGzsqYrqgpdyEcksVFn+xDe98/jy3UzdWV2DvkQKc37YBfR5/GuFyP9SSKmzeVIK9x/fixb8/h33L5sDVcRwqti1CjKcKyvyHYD6+HQNGjcTcTz6DK0SGyQ8/jkM7NyEzLRnfzl+Bl575I4qP7IFVEYIfl2zB0w/1wMZ9VozuH4+PZx7AU/d2xFOfncCnz93FAIKA95ABBAYQrlhbGUDgRXKnFWtiHoTm7UEgAGG3vgR9M9tw+vnfbavxxoC7m9ivvfIQ3v16M7q1TYAkNANwWzFoaH8s+HI2Jj42Bk89+gkevrczKuvdqCk8hi4DRmD+/K1NAMKuDSvhjGuN7DBAppHig1cW4pV/3o1PlxZjVDsrNhyvx5mfZ2PsH96C2e7FgC5ZmP/9LIRpvSioi0BGtBqDRo1GfWUxoqS1eHOZHvd3V2PlYT06ZcYgOTsR33+4Bq9/9Cy/MLvtWLV8IQ6X6TBteCus230QIVIT3OpsnDhzGC8/+wxcdUV44dXp6D/hSUSeXwlf94dgP7ULfYYNx/xPP4c8VoXc3qNw+sh25HbIw48LFuPPf3kaRzatRUzrTli2eBF+dc9Q/LT2KHq2VmLlCS0e6BeKFxYb8e8nBzCAwACCaKE15kFgHoQrgBIDCLxIWJAiL4ebnebIeRAKj6Nr4gUPwl68PXhyE731+9w4emAf9BYP2rRtC6upHpktMnBs/yG07dIKK5buRn7nFBw8ehphEeFISU3F8ROlaNM2CVqNDtGRkXBajThw4BBcUg3y8lpi7+bjGDigDfYUmNAqEdh9+AzUThOSO/SCD1JkJUdi/86t8CjV8Hp1aJMRjkPHTiEiPhXtshOxccN2dOyej4qzx1HnlCCvYysc2HoSg0f1vtj34hOH4IrORorGhT1790EaGo5wbTj0dXoM7N2LEKPjlb/+Db975U1YT+2CP6kj3IYypGe3wNHd+5GRnYCdew6huLoWQwcMwPldy5A29DeItJfgwPFziEjKQsdWqTiyfzeqTW50yu+Fsl0/wdSiH/pl8PFeLEjxiikQzIPAPAjMgyAQzMkAAgMIjY3jZgOEU7XV2F5TjN6Zrbluzdj+E94YMPHKWf22+4sXW5YtgjEyD2P75AQcXXXhMcxetBLRya0wcdxIuOsrcabEiG5dOwQMOPQ4zNi0+wgG9u15MdCaAQQGEJpNFgMr1nRjijWxNEcWg3Bh2rvVYxDqHDasP1+AcA2ffWR3OjA2O++2gwPXYkB+v4/LxFIolQEBgs/rBcnOUSgusawygMAAAgMIDTpwJxRrYkGK/MdmQYq8HG51gEDG4PX7Ls7iUkiCogS+FgvunfAOBhAYQGg2AMHhdAnyIFTXGBEXe4nA4/LPRit+QZ6nUfgaTRZEhAfOjScdI/n/YgyBvLtVJshzYLbYoNUEjsYm/eODPhSieaUWq50rnCJ0VVQZkBgvnF9NeA5cbuFxEHIgcr4ulD9LcmOdTjd0IcKFRrhxKBVB5U0HGkdtnRlRIpwX5DdWuwMhGuE+XDWTYkO5ZzE+CEKEQL630GWorUe0SH4/je6ZNgbSLi1fmgYAaDZrCvjiAAASG0lEQVRB+kDGKMS8SXakXK60QM44ZxNykkstnJ9fWV2HhDhh0iqr1Y7wMB2rxXATEAkBCDabEzK5NCjgRdMnmk2QIdL0nmY3tDYIzwG5hDhOyPzH8SAIBClabU6Or4bGMUDqhwhdtDFWVtciIS5K9IvTZE1jtCWxFGQ9E5rjaLZLijmRQk9iNbwqqmqRGC88Dtp61nhdZzwIjAeBMwh9rQkxUeGixmG1OhAiAlJogJF5EG4tDwKZsIMoJngTltDbv0lWzbHpN2ZBirw8WBZDI71gaY68MFiQIi8HlsXAy+FmByne/svzzR0hO2K4Uv4MIDCAcIVWMIDAAEJjpWAAgQGEm7t035jWGUBgAKHZxCCwLAaWxcCOGC5NSOSsM0QrfI5JnqzWGxEXIxybQ4tBoN1v7kyKRAYnDZUwux2c4FpExCFKHbieyo1ZUm+vVhhAYACBAYQGHWBZDACrxcArA6vFwMuhuQMEUs1xzql9aJ/I12I4VFKIl3qNvspV2o9qfS3iYoIrpkRqPZACQhqt5hcH5l5lh6/4ucftgh9SLohM6PJ5HKgyOpEYIxzvwwACAwgMIDCAcNEKGEBgAKHxlNjcAcLRmnIsPHMAreKSuW4fPH8Gbw2cdJXrrRv/+PdHePnZPwf1HntdDfYdLUR+7x6QBy7+Kfoea30d6uxupMTHBdVeMA/V6cvghg5xIov/3s1rIEvphJwIL1avWIb88Y8h5bKCuQwgMIDAAEIwAMHPR22qRUoIk7QPuVwKqTTwLGEyW6HTagTTZ0j6IEknIxHbQpfZYkeoTjjNsbRCj5TEGMHfczwIpOy1wDgIQCCBiELpnCStjaTXhAqUxSYN08qx0ia4YLIYLFaHaKrlNcli8Pm5dKZA1y0Tg2B3QSNSHvxaHDGQdDCZgM7zNiGcBklkW15pQFKC8G693mxFiIDdkOOFZUVHkZvEUy2vOb4P7w1uWs2REARt/2kxKn06JIZlIK+VBl98NQt9JjwMpb4QdU4jyuqkmDhmGIylx7F860FsP3wMX77+IlYunAtjeFtM6ZuBlZtOwCeRYPzoAZD4vNi6ZhFK/Im4q1sWfl77E86UlGLQlEfRKVWN2Z9/jri8QRjSOweLv1mClLxcxPsqsPqgHlOmTESI1IUf5n2HVv0mwHRwEb5dU4IPP38NZ7etxb4KKX49Jh/7DuzAoRIJnrhnKM7u2wS06AtZRQGk8cnwlBzBmn2lePTBKTi+dy32lEiQG2ZFVp9x2L9yCXJ6dIAccuzedAB2px7dh09ERpQSy35cgKjUdITFpePw3kI8eN8QnDh2FPuXf4v2j7yDvMumjgsAQaVWiqaqXrARmj5VG4yIixY+EiPvodkuSbvUihy90dqg2S5J5SZTsFAKMwlSJKmBYinvtDHQsrDKKg1IFrEJIiearGlpkGQtIeuAULomzXZvRBZD4/VOYrU7BHkQavRGxIqctdKUhgiULMBCCyO5b6q3IjwsJPD6xfEHeATzwcmP3G4vl1srEcgJt1jsILmxUoH8WvJBuI8ljA9gtToREiJ8Lk3LnyU8CGSRF8pr9/t4HgSFANUyuUfkKJZi6HI2vF9kHGIgoc5oRmTEZVuZy35AyyO2UxZGWq40OWIgsiKAL9Dl9fC51CQ/XOii8Tk4HC6oG2qdB3oHbQzkN7V19YiKDBPsg8Phhlp9iRnv8gdpNmFv4EEQ0gei8wQgCO0yaDZB+lNdU4e4WGEeBJvNgcjwUMFqjtsqCtEzlacbnrlv4xUeBKfhJGatOI5h7ZT4epcfSdIipOe0x5mjByH1+5A2YBJsxfvQp1dvLJk9GyOnTMCfX/8Cz9zdGyfKLAixFSM8tR2W76jGy3+ZgqhwHUyn1mL16VC0jzTBHJKNwsP7MGLkQCycuxy9umahyAqcP3UCk6YMw39fm4vf/nUaFi/bghCpGRFt+0JyYi3i+kzB+QN70KpDBgrKzRjZMRZvfbocbWOdKA/vDZ2vFMOGjUVKbDjsFUfw/spidE9XILdzZ2xbtQZuezkq0u9Geu06pHQegyjLIRwt8+B4OTCxZwSsPhW+eG0Wnnn511i2x4rRbUw4UZ+EWMMqFGh6Q64JwX1D8jm5rf/8n4ie+M+AAIEsdhIp4UGgQXvA6XBDJaJvNJvgFj6K7dLshtYGzXY9Hh83ViEeBDL3EIAgdnxDGwPtPs0mqOsZt6ElG0HhIybyXVUKBeQCmyCa7QbDg1BVXYd4UY4T8fWs8brOeBBulAfBLewhYEcM/CTIYhB4OTT3IwZSrGlXzflL1Ry3r8Wbl9VicOoP4set9ZjaMwQvzz+PFlEOdO/WDXKpBHvWrUOn+x/FuV0/o1OH9pj33Xw88cfH8NtnXsHDd/WDG2FITYmHxlOLrzc58PfH+3Fy0R+ah631nTE0242j1XKYKsowaNgAzP/iW2hi5chs1w2nD/6/9q42RsqrCj+7OzPMzA7LsrC7g5SgVGH5KqBbQIJAoQgilTatUkNjrX/sj2qMiVHjDxObqIE/1rRiQNOiVgvFRmpa22xFGn+whn5Q1IIJlFZgdtndYXe+v2f03DvTTnfm3vOyRrI7PW/CH96d9733vOfjueee89zXsHHzJ/D0E/348p4VeKwvhPXBFOIzexA5+XusfuA7iPz9Fbhm+XBhMI5P97hx4NlL2HnbUqRzzfhX6BJ2bNoMj6sJKBXw+I8eRmDZetyxeQl+9WQf1i704PnocvROO4ueT+7CjOIYfrr3J9j24DcxI3pWAYTDv3gZD//g89h/7G1s7xnBgHc1Php/Di+NLULLNC/2bKVDn+wAoRKQbZnNCnTgVrXc6l7rnL04l1sccO9wkkEgYi8TQJA2R/21b0QGoZpISQCCAATtfIUoqRycpYuBBBGNJdHqr89Aqk9zPIveOfOVzJ4+9wr2jTvNsZDP4tBj+zASTaA4fwfuWlbCH0/0Y+6Hl2N6Loaln7sHl8+cxJKFi3Hp9Mvoe/0S3vlvlu2HD9yNI888i3TJg+2b1uLPZ7L46u5eDSDzKRx+/CAuJ7y47947cfH821izbjVePHoMN93kxjN9r8LfPhtfue8z6Dt2BrvvXYu9P34EcHuwfMs9WDevGb8+fAytH1mDL25ahENPvog9D30JJ556AudDY9iw4y5EIkPYuHoN3C166R4+dxwnBzuwc+MiHNi7D/HmJrgW7MKt3SEsWLEFs1wp/OH547h923ZEQv9EsujBC0dP4etf24bfHb+Cz67rwi8PHEIycREr7vw2Eucv4At7doLwx9+OPIr2rQ9h0bhEjtQg1GZNBCAIQKjRCuFB0CIRoiQtB24VQn8zHI6gc5a5QpxbCXErKXrHB73NkQDCqfAVbFiwWH2X/X/9U81pjsViDm+c6kc4fA3dSzdg+XzzdkZtOJg6/xM6dwbvJJpx66qlKjsy/krFwnjj9JsYGh5E7+27kLr4GgaaurD+lgXGSQpAEIAgRYplHZA2R2lzrLgD2WLQkpjsWwyxXAb7Xz+BSuHOze2zcffCj9d49Xw+h2KpycqfP3WgQP2RFvN5lJrNBaNUVJPL54CmFs2/XyoikytYi+0EIAhAEIAgAOFdK5AaBC0KAQhTAyBM9aA+2ccvAEEAggAEAQgCEMb5AQEIAhAme/C+EeMTgCAAQQCCAAQBCAIQ6sabyb7FcN1BslQC1RM5qci/7mc34A8EIAhAmDQAIRZPGnkQ2HPvUxn4LOdv02fmzseOxJKYMd3M4654Cgz8APR8IthQPAiGhmFq2fD7vMaeccWzYKFGpXdwhW1XR8bQbeGLUDwIefN7yCFQH7CRIKhQUERLtrPOOTlxfnQsGkd7W8D6Z1w7FXffVm+ithiKZR4EA2cFZRjoMrVC0b3RSBwzZ5jnwRGZcHOgd3Dz4HgOOJugMZBOm3q+qViTiMGsPAgus03QHLhizlQ6g472NqusrcpSKuHfb53DwEgU7Z1BZJMJLFncM/HncQrcQPfJHxApGV2OeBAYrpnRSExxWtguTu85HgTuHZzt5gtlHgQD+Rfpo6vFZfSRNDduDtz94fAYOhlCKc52OT9MsYTiDRGZ1bsUD4LFdolPx+UiYj/z1+SKqLlC7Op415TL5Y0A4erwKLotZCoccxVNgXPINodOA8tmc9aCHn30rZk1Lhovt2sZFM9JX2l1X2i9zxK6GsaHus2sdIpJ0caDoABCwQhUCFxQ0Am0mtkciUmRCKkc8KrU1azwaBSzLOQ/9CPue3NAiuuVZrcYCgU1dhPbGt3j2jW5MXL3VXC9FkFnh7lTgnNEnE0kUmk1RxNrHOmSlUmRsQmaw8DQNczp6jB6GWJTa5vun3BApzbHF44+heDiXgTndCN0uh/uW27DyqAc6sRhGfIXRJZFANFJ1oXTN84mnCyCOLvg3pFnbFczKTYpYFzvIt9DCyiP20xAxo2R81+cTTiJZxyjLcUS8tNuV30yJRXPiAXVgACcxCsuHnHxrJoxV3gQhAdB2SNn4AogJNJWNkfOADnAyQKEfBkgGNC3k5Ux70SEB4HkaONB4AIc3aeDi35z8GcoBLqxYct2zMVb2PdSDt+/X7MIymWWgGwx1MpGeBC0TJwABI76nzs6QIiSqvTvhp3FIEyKEICgFY9b8TVCDUKpWMCVyyF4WxL4+dF+fO/+T+EbB9/EI9+6Q7ABIwEBCAIQJk0NQom00XBxKRfu8B4nzlB4EIQHoaJ+kkHQkmgEgJDLpnHk8G+x6mMz8dw/vHhw60w82u/Fd3evFIAgAKFGArTFIFTLtKVuP2hNMghVqiNMiloYwqSo5SBMiloOuu7GfIIp52ToGfxpjmaqZWcRvoShyxdxYSCKVSuX4dW/9CHYuxk3d5gPPXP23Mb/K8kgSAZBMghlHZAMgmQQJIPwfofYCBmE6hnlMmmEro5g3ry5jo4vbnwIYJ+hAAQBCAIQBCC8awXCpKhFIVsMWg6NBhA+6AH/eucvAEEAwqQBCOl01liDwPZTptJo9Xmt+s+1dNn67x23OVraQmLxJPx0Kp2tzdHjQpOlQTCeTCHgN7cYDgyFMafL3uaoeRDqt+gU2TbHAjLZrHUMXH8u56S43n76fTKVVpwSpiuZzsDvNaeQufZAxYNQLBl7hLlWKRoX165J/dQ+yxi5OdA7RkajmG1pCeV0nrtPnRbUC23SF9Il0mfiQqh3ca1S9JvB4VEELS3MqpI54LO2GHM6JfcnJgHyB/F4SrU9O2lz5PSJswll24ztcnbDvYOzXbpPczX5aWr9pdZAG2cNNwfOfw0OX0Ow09z6S3LiZM35YerGmOZxTbjNMZvLqd/a9IKtHWTiWXU3WlORlq+Gi31RIo1Aqx0gcBXb1i2Gkm7r8E4z975y+62RWEIFVhO5juIPIIBgYZ7g2kK4thLFg5DNq/7Xehd9AirSoXHUu4gcg8Y5PcDwIHjcjohV6r2DI8Wi33BFqRwBB0coRWQpBBCMhFFTpc0xlYXP5zFGB84mnGQQyJGadDqTzauDgUyrEBoY1ytNOl9xhh6P2f4mFgLlVyYJUKDMpLOKHK7V73NkzylG34bCEXRZTjjVWSt7e28ymYHfbwb/3Du4+iGOB4F8D/kFEzeIkzlw/uvKYBhzg+aFHr3DZrtOaubIrigOmIAOZ7vUdef2uKxbdVw84uJZ9X3hQRAeBOWrhAdBu2zOUdLfcJk1DgBw950AhP93kSJlEMiJ0Vg1UXLtRVtCRlbLEpC1sIfSIwkYN7eYqb2KhZIGOYY/USyoRDhjuG8dX3k6FLhMrHZcQKD7xIBK2R7TRT1itEAwgTWSAf2rPIMymSTTVr/XUfbAyRg5gjInes/xh3DvcAIQpItBuhhq7EiKFKVIsaIUUoNQASlpFbRsTIo3AiDYmDtppLZ0KwXFsWjCSHvNsYvS87mWrrFIHG1trcbVFMdqR+/gVlPcqpIjBysWi6DMmGnFSEyx2XwBAb89E2vLuXCAkwveAhC0dLlv7QSMcToXS6Tg9biNNOpcRpyzCRrj/5pBEKKkKmsToiQtDMkgSAahOghxdKwCEN4Dc7TaN10CELRkJIOg5SAAYZylcOhWMgiSQZAMwvuNZrJsMUgGgV9VSgZB6y6XpRCAIAChLogWgKD3IK2HNRXLhzWZihTzeaTTfJGirZjTlqKUDMJ70pEaBC0LySBoOXBpZwEIAhCqfWujbTH8B0GuOFsciTvhAAAAAElFTkSuQmCC;" vertex="1" parent="1">
                    <mxGeometry x="280" y="220" width="520" height="285" as="geometry"/>
                </mxCell>
            </root>
        </mxGraphModel>
    </diagram>
</mxfile>